<svg width="66" height="24" viewBox="0 0 66 24" fill="none" xmlns="http://www.w3.org/2000/svg">
<path d="M5.13796 12.7926C3.65877 12.8787 2.33663 12.598 1.07801 11.9563C0.600633 11.7129 0.463385 11.4057 0.490507 10.8772C0.758208 5.66022 4.87462 1.02391 10.0293 0.168632C16.3296 -0.876724 22.087 3.03231 23.4451 9.2796C23.4787 9.43406 23.4868 9.59407 23.5064 9.74864C20.4123 10.4182 17.1543 9.03985 15.0935 3.96032C13.1183 3.96032 11.1526 3.96032 9.1868 3.96032C9.17603 4.02466 9.16527 4.089 9.15451 4.15335C9.4485 4.23018 9.74571 4.29651 10.0359 4.38561C11.5357 4.84607 12.2396 6.16076 11.6742 7.61459C10.5242 10.5715 8.39446 12.3486 5.13796 12.7926Z" fill="white"/>
<path d="M8.77149 22.6963C4.06071 21.0767 0.819184 17.1522 0.618347 12.8538C1.49209 12.9664 2.35727 13.1137 3.22866 13.1833C5.72929 13.3831 8.11213 12.9999 10.3112 11.7064C10.4905 11.6009 10.8919 11.634 11.0462 11.7681C11.6215 12.2683 12.0063 12.8329 11.941 13.7133C11.7876 15.7824 11.7762 17.8617 11.6714 19.9351C11.6473 20.4116 11.5183 20.8938 11.3692 21.351C10.857 22.9218 10.388 23.162 8.77149 22.6963Z" fill="white"/>
<path d="M17.2542 21.9642C16.3133 22.302 15.4145 22.5836 14.5362 22.9188C13.8285 23.1889 13.3554 22.8819 13.0585 22.3174C12.8002 21.8264 12.528 21.2636 12.5235 20.7304C12.483 15.8519 12.4997 10.9729 12.6176 6.05225C14.7902 10.9553 16.9627 15.8583 19.1644 20.827C18.5037 21.2194 17.9044 21.5753 17.2542 21.9642Z" fill="white"/>
<path d="M18.9578 10.0674C20.5224 10.2122 22.019 10.3452 23.6284 10.4883C23.8859 13.2942 23.19 15.934 21.4417 18.4267C20.1702 15.5369 18.9396 12.7404 17.6604 9.83319C18.124 9.91711 18.5068 9.9864 18.9578 10.0674Z" fill="white"/>
<path d="M34.6412 6.25781C35.0527 6.25781 35.4615 6.28646 35.8678 6.34375C36.2793 6.39583 36.6725 6.46094 37.0475 6.53906C37.4277 6.61198 37.7871 6.6849 38.1256 6.75781C38.4642 6.83073 38.7688 6.88281 39.0397 6.91406C38.9772 7.10156 38.9459 7.43229 38.9459 7.90625C38.9459 8.82812 39.0839 9.6276 39.36 10.3047C39.3287 10.3984 39.2324 10.4557 39.0709 10.4766L38.735 9.75781C38.5683 9.39844 38.3678 9.04427 38.1334 8.69531C37.899 8.34115 37.6178 8.02604 37.2897 7.75C36.9615 7.46875 36.5787 7.24219 36.1412 7.07031C35.7089 6.89844 35.2089 6.8125 34.6412 6.8125C34.1517 6.8125 33.7168 6.89323 33.3365 7.05469C32.9563 7.21615 32.623 7.4349 32.3365 7.71094C32.0501 7.98177 31.8079 8.29948 31.61 8.66406C31.4121 9.02344 31.2506 9.40625 31.1256 9.8125C31.0058 10.2188 30.9173 10.6354 30.86 11.0625C30.8079 11.4896 30.7819 11.9036 30.7819 12.3047C30.7819 12.9714 30.8678 13.6094 31.0397 14.2188C31.2168 14.8281 31.4902 15.3672 31.86 15.8359C32.2298 16.2995 32.6985 16.6693 33.2662 16.9453C33.8392 17.2214 34.5214 17.3594 35.3131 17.3594C36.8287 17.3594 37.9746 16.8854 38.7506 15.9375C38.8339 15.9375 38.9017 15.9609 38.9537 16.0078C39.011 16.0547 39.0397 16.112 39.0397 16.1797C38.7897 16.5495 38.485 16.8698 38.1256 17.1406C37.7714 17.4115 37.3938 17.6354 36.9928 17.8125C36.5918 17.9844 36.1855 18.112 35.774 18.1953C35.3678 18.2786 34.9902 18.3203 34.6412 18.3203C34.261 18.3203 33.8496 18.2786 33.4069 18.1953C32.9694 18.1172 32.5293 17.9844 32.0865 17.7969C31.649 17.6094 31.2272 17.3646 30.8209 17.0625C30.4199 16.7552 30.0631 16.3802 29.7506 15.9375C29.4381 15.4896 29.1881 14.9661 29.0006 14.3672C28.8131 13.7682 28.7194 13.0807 28.7194 12.3047C28.7194 11.5234 28.8131 10.8333 29.0006 10.2344C29.1881 9.63021 29.4381 9.10417 29.7506 8.65625C30.0683 8.20833 30.4303 7.83333 30.8365 7.53125C31.248 7.22396 31.6725 6.97656 32.11 6.78906C32.5475 6.59635 32.985 6.46094 33.4225 6.38281C33.86 6.29948 34.2662 6.25781 34.6412 6.25781ZM40.5709 6.51562C41.5501 6.55729 42.7819 6.57812 44.2662 6.57812L47.2897 14.7656H47.3287L50.4772 6.57812H51.3756C52.0214 6.57812 52.9329 6.55729 54.11 6.51562C54.1308 6.59896 54.1412 6.65625 54.1412 6.6875C54.1412 6.72396 54.1308 6.78906 54.11 6.88281C53.9225 6.89844 53.7714 6.91406 53.6569 6.92969C53.5423 6.94531 53.3886 6.97135 53.1959 7.00781C53.0084 7.04427 52.8574 7.08854 52.7428 7.14062C52.6282 7.1875 52.5267 7.25521 52.4381 7.34375C52.3496 7.42708 52.3027 7.52344 52.2975 7.63281C52.2454 8.85677 52.2194 10.3125 52.2194 12C52.2194 13.7135 52.2532 15.3568 52.3209 16.9297C52.3261 17.0651 52.386 17.1823 52.5006 17.2812C52.6152 17.375 52.7793 17.4479 52.9928 17.5C53.2115 17.5521 53.3938 17.5911 53.5397 17.6172C53.6907 17.638 53.886 17.6589 54.1256 17.6797C54.1464 17.763 54.1569 17.8333 54.1569 17.8906C54.1569 17.9323 54.1464 17.9844 54.1256 18.0469C53.2454 18.0156 52.3392 18 51.4069 18C50.4694 18 49.5631 18.0156 48.6881 18.0469C48.6673 17.9844 48.6569 17.9323 48.6569 17.8906C48.6569 17.8021 48.6673 17.7318 48.6881 17.6797C48.9277 17.6589 49.1204 17.638 49.2662 17.6172C49.4173 17.5911 49.5996 17.5521 49.8131 17.5C50.0319 17.4479 50.1985 17.375 50.3131 17.2812C50.4277 17.1823 50.4876 17.0651 50.4928 16.9297C50.5449 15.3047 50.5709 13.8542 50.5709 12.5781C50.5709 11.3542 50.5449 9.96094 50.4928 8.39844H50.4303L46.86 17.8047H46.7819L42.9772 8.21094H42.8912C42.8496 9.47656 42.8287 10.9323 42.8287 12.5781C42.8287 13.7865 42.8548 15.1979 42.9069 16.8125C42.9173 17.2865 43.4928 17.5755 44.6334 17.6797C44.6595 17.7682 44.6725 17.8385 44.6725 17.8906C44.6725 17.9427 44.6595 17.9948 44.6334 18.0469C43.8053 18.0156 43.0657 18 42.4147 18C41.998 18 41.3001 18.0156 40.3209 18.0469C40.2949 17.9948 40.2819 17.9427 40.2819 17.8906C40.2819 17.8021 40.2949 17.7318 40.3209 17.6797C41.472 17.5703 42.0475 17.2812 42.0475 16.8125C42.11 15.1875 42.1412 13.5833 42.1412 12C42.1412 10.8594 42.1256 9.64844 42.0944 8.36719C42.0892 8.14844 42.0761 7.96615 42.0553 7.82031C42.0345 7.66927 41.9954 7.53906 41.9381 7.42969C41.8808 7.32031 41.8209 7.23438 41.7584 7.17188C41.6959 7.10938 41.5996 7.05469 41.4694 7.00781C41.3392 6.95573 41.2115 6.91927 41.0865 6.89844C40.9668 6.8724 40.7949 6.84375 40.5709 6.8125C40.5501 6.77083 40.5397 6.72396 40.5397 6.67188C40.5397 6.60938 40.5501 6.55729 40.5709 6.51562ZM62.8522 9.82031C62.6543 8.86719 62.2897 8.1276 61.7584 7.60156C61.2324 7.07552 60.5996 6.8125 59.86 6.8125C59.136 6.8125 58.5735 6.98438 58.1725 7.32812C57.7767 7.67188 57.5787 8.13021 57.5787 8.70312C57.5787 9.02083 57.6074 9.28385 57.6647 9.49219C57.722 9.70052 57.8392 9.90365 58.0162 10.1016C58.1933 10.2943 58.4511 10.4661 58.7897 10.6172C59.1282 10.763 59.5709 10.9036 60.1178 11.0391C60.4147 11.112 60.6725 11.1797 60.8912 11.2422C61.1152 11.3047 61.36 11.3906 61.6256 11.5C61.8964 11.6094 62.1282 11.7266 62.3209 11.8516C62.5188 11.9766 62.7142 12.1328 62.9069 12.3203C63.1048 12.5026 63.2636 12.7057 63.3834 12.9297C63.5084 13.1536 63.6074 13.4193 63.6803 13.7266C63.7584 14.0286 63.7975 14.3594 63.7975 14.7188C63.7975 15.1979 63.7089 15.6406 63.5319 16.0469C63.3548 16.4479 63.123 16.7865 62.8365 17.0625C62.5501 17.3385 62.2194 17.5729 61.8444 17.7656C61.4694 17.9583 61.0892 18.099 60.7037 18.1875C60.3183 18.276 59.9355 18.3203 59.5553 18.3203C58.399 18.3203 57.1673 18.0208 55.86 17.4219C55.886 16.8594 55.899 16.513 55.899 16.3828C55.899 15.5339 55.8287 14.6875 55.6881 13.8438C55.7454 13.8073 55.8027 13.7891 55.86 13.7891C55.9329 13.7891 55.998 13.8073 56.0553 13.8438C56.1647 14.5156 56.3444 15.1094 56.5944 15.625C56.8496 16.1406 57.1412 16.5495 57.4694 16.8516C57.7975 17.1484 58.136 17.3724 58.485 17.5234C58.8392 17.6693 59.1959 17.7422 59.5553 17.7422C60.373 17.7422 61.0006 17.5312 61.4381 17.1094C61.8808 16.6823 62.1022 16.1198 62.1022 15.4219C62.1022 14.7188 61.9381 14.1901 61.61 13.8359C61.2871 13.4766 60.6673 13.1849 59.7506 12.9609C58.6048 12.6745 57.7089 12.2526 57.0631 11.6953C56.4225 11.1328 56.1022 10.3906 56.1022 9.46875C56.1022 8.98438 56.1803 8.55208 56.3365 8.17188C56.498 7.78646 56.7037 7.47917 56.9537 7.25C57.2089 7.01562 57.5058 6.82292 57.8444 6.67188C58.1829 6.51562 58.5162 6.40885 58.8444 6.35156C59.1777 6.28906 59.5162 6.25781 59.86 6.25781C60.8912 6.25781 61.9642 6.4974 63.0787 6.97656C63.0475 7.28385 63.0319 7.60417 63.0319 7.9375C63.0319 8.71875 63.0944 9.34635 63.2194 9.82031C63.1517 9.84635 63.0944 9.85938 63.0475 9.85938C62.9954 9.85938 62.9303 9.84635 62.8522 9.82031Z" fill="white"/>
</svg>
