<svg width="32" height="32" viewBox="0 0 32 32" fill="none" xmlns="http://www.w3.org/2000/svg">
<path d="M30 16.3378C30 15.3922 29.9066 14.4162 29.751 13.5012H16.2751V18.8998H23.9934C23.6822 20.6383 22.6552 22.1634 21.1302 23.1394L25.7363 26.6469C28.4439 24.1764 30 20.5773 30 16.3378Z" fill="#4280EF"/>
<path d="M16.2772 30C20.1363 30 23.373 28.7495 25.7383 26.6145L21.1322 23.1374C19.8562 23.9914 18.2067 24.4794 16.2772 24.4794C12.5425 24.4794 9.39917 22.0089 8.24765 18.7148L3.51709 22.2834C5.94461 27.011 10.8619 30 16.2772 30Z" fill="#34A353"/>
<path d="M8.24776 18.6847C7.65644 16.9461 7.65644 15.0551 8.24776 13.3166L3.5172 9.71753C1.49427 13.6826 1.49427 18.3492 3.5172 22.2837L8.24776 18.6847Z" fill="#F6B704"/>
<path d="M16.2772 7.55162C18.3001 7.52112 20.2919 8.28363 21.7546 9.65615L25.8316 5.63009C23.2485 3.25105 19.8251 1.97003 16.2772 2.00053C10.8619 2.00053 5.94461 4.98958 3.51709 9.71715L8.24765 13.3162C9.39917 9.99166 12.5425 7.55162 16.2772 7.55162Z" fill="#E54335"/>
</svg>
