<svg width="125" height="24" viewBox="0 0 125 24" fill="none" xmlns="http://www.w3.org/2000/svg">
<g clip-path="url(#clip0_216_552)">
<path d="M22.7771 22.8009C23.1003 22.4777 23.1003 21.9537 22.7771 21.6305C22.4539 21.3073 21.9299 21.3073 21.6067 21.6305C21.2835 21.9537 21.2835 22.4777 21.6067 22.8009C21.9299 23.1241 22.4539 23.1241 22.7771 22.8009Z" fill="white"/>
<path d="M21.1054 21.1482C21.3801 20.8735 21.3801 20.4281 21.1054 20.1533C20.8307 19.8786 20.3853 19.8786 20.1106 20.1533C19.8359 20.4281 19.8359 20.8735 20.1106 21.1482C20.3853 21.4229 20.8307 21.4229 21.1054 21.1482Z" fill="white"/>
<path d="M19.5991 19.6308C19.8254 19.4046 19.8254 19.0378 19.5991 18.8116C19.3729 18.5853 19.0061 18.5853 18.7799 18.8116C18.5536 19.0378 18.5536 19.4046 18.7799 19.6308C19.0061 19.8571 19.3729 19.8571 19.5991 19.6308Z" fill="white"/>
<path d="M18.289 18.3105C18.4748 18.1246 18.4748 17.8233 18.289 17.6375C18.1032 17.4517 17.8019 17.4517 17.616 17.6375C17.4302 17.8234 17.4302 18.1246 17.616 18.3105C17.8019 18.4963 18.1032 18.4963 18.289 18.3105Z" fill="white"/>
<path d="M17.0997 17.1382C17.237 17.0009 17.237 16.7782 17.0997 16.6408C16.9623 16.5035 16.7396 16.5035 16.6023 16.6408C16.4649 16.7782 16.4649 17.0009 16.6023 17.1382C16.7396 17.2756 16.9623 17.2756 17.0997 17.1382Z" fill="white"/>
<path d="M16.1051 16.1305C16.194 16.0416 16.194 15.8975 16.1051 15.8086C16.0162 15.7197 15.8721 15.7197 15.7832 15.8086C15.6944 15.8975 15.6944 16.0416 15.7832 16.1305C15.8721 16.2193 16.0162 16.2193 16.1051 16.1305Z" fill="white"/>
<path d="M15.2619 15.3032C15.3104 15.2548 15.3104 15.1762 15.2619 15.1277C15.2135 15.0792 15.1349 15.0792 15.0864 15.1277C15.0379 15.1762 15.0379 15.2548 15.0864 15.3032C15.1349 15.3517 15.2135 15.3517 15.2619 15.3032Z" fill="white"/>
<path d="M14.4287 14.4583C14.655 14.2321 14.655 13.8653 14.4287 13.6391C14.2025 13.4128 13.8357 13.4128 13.6095 13.6391C13.3832 13.8653 13.3832 14.2321 13.6095 14.4583C13.8357 14.6846 14.2025 14.6846 14.4287 14.4583Z" fill="white"/>
<path d="M1.78009 1.79893C2.10328 1.47574 2.10328 0.951748 1.78009 0.628559C1.45691 0.30537 0.932912 0.30537 0.609722 0.628559C0.286533 0.951748 0.286533 1.47574 0.609722 1.79893C0.932912 2.12212 1.45691 2.12212 1.78009 1.79893Z" fill="white"/>
<path d="M3.26163 3.29068C3.53634 3.01597 3.53634 2.57058 3.26163 2.29586C2.98692 2.02115 2.54153 2.02115 2.26682 2.29587C1.99211 2.57058 1.99211 3.01597 2.26682 3.29068C2.54153 3.56539 2.98692 3.56539 3.26163 3.29068Z" fill="white"/>
<path d="M4.57691 4.61599C4.80315 4.38976 4.80314 4.02296 4.57691 3.79673C4.35068 3.5705 3.98389 3.5705 3.75765 3.79673C3.53142 4.02296 3.53142 4.38976 3.75765 4.61599C3.98388 4.84222 4.35068 4.84222 4.57691 4.61599Z" fill="white"/>
<path d="M5.7708 5.79193C5.95663 5.60609 5.95663 5.30479 5.7708 5.11896C5.58496 4.93313 5.28367 4.93313 5.09783 5.11896C4.912 5.3048 4.912 5.60609 5.09783 5.79192C5.28367 5.97776 5.58497 5.97776 5.7708 5.79193Z" fill="white"/>
<path d="M6.75533 6.78862C6.89268 6.65126 6.89269 6.42857 6.75533 6.29121C6.61798 6.15386 6.39528 6.15386 6.25792 6.29121C6.12057 6.42857 6.12057 6.65127 6.25792 6.78862C6.39528 6.92598 6.61797 6.92598 6.75533 6.78862Z" fill="white"/>
<path d="M7.60363 7.62083C7.69251 7.53195 7.69251 7.38785 7.60363 7.29897C7.51475 7.2101 7.37065 7.2101 7.28178 7.29897C7.1929 7.38785 7.1929 7.53195 7.28178 7.62083C7.37065 7.7097 7.51475 7.70971 7.60363 7.62083Z" fill="white"/>
<path d="M8.2712 8.3017C8.31968 8.25322 8.31969 8.17463 8.27121 8.12615C8.22273 8.07767 8.14413 8.07767 8.09565 8.12615C8.04717 8.17463 8.04717 8.25323 8.09565 8.30171C8.14413 8.35019 8.22273 8.35018 8.2712 8.3017Z" fill="white"/>
<path d="M9.76277 9.80502C9.989 9.57878 9.989 9.21199 9.76276 8.98575C9.53653 8.75952 9.16974 8.75952 8.9435 8.98576C8.71727 9.21199 8.71727 9.57878 8.9435 9.80501C9.16974 10.0312 9.53653 10.0312 9.76277 9.80502Z" fill="white"/>
<path d="M1.77759 22.7984C2.10078 22.4753 2.10078 21.9513 1.77759 21.6281C1.4544 21.3049 0.930409 21.3049 0.60722 21.6281C0.28403 21.9513 0.28403 22.4753 0.60722 22.7984C0.930409 23.1216 1.4544 23.1216 1.77759 22.7984Z" fill="white"/>
<path d="M3.25474 21.1267C3.52945 20.852 3.52945 20.4066 3.25474 20.1319C2.98003 19.8572 2.53463 19.8572 2.25992 20.1319C1.98521 20.4066 1.98521 20.852 2.25992 21.1267C2.53464 21.4014 2.98003 21.4014 3.25474 21.1267Z" fill="white"/>
<path d="M4.58058 19.6345C4.80681 19.4083 4.80681 19.0415 4.58057 18.8152C4.35434 18.589 3.98755 18.589 3.76131 18.8152C3.53508 19.0415 3.53508 19.4082 3.76131 19.6345C3.98755 19.8607 4.35434 19.8607 4.58058 19.6345Z" fill="white"/>
<path d="M5.77062 18.3103C5.95645 18.1245 5.95645 17.8232 5.77061 17.6373C5.58478 17.4515 5.28349 17.4515 5.09765 17.6373C4.91182 17.8232 4.91182 18.1245 5.09765 18.3103C5.28348 18.4961 5.58478 18.4961 5.77062 18.3103Z" fill="white"/>
<path d="M6.7527 17.1356C6.89006 16.9982 6.89006 16.7756 6.75271 16.6382C6.61535 16.5008 6.39265 16.5008 6.2553 16.6382C6.11794 16.7756 6.11794 16.9983 6.2553 17.1356C6.39265 17.273 6.61535 17.273 6.7527 17.1356Z" fill="white"/>
<path d="M7.59954 16.1264C7.68841 16.0375 7.68842 15.8934 7.59954 15.8045C7.51066 15.7157 7.36656 15.7157 7.27769 15.8045C7.18881 15.8934 7.18881 16.0375 7.27769 16.1264C7.36656 16.2153 7.51066 16.2153 7.59954 16.1264Z" fill="white"/>
<path d="M8.28043 15.3125C8.3289 15.264 8.3289 15.1854 8.28042 15.137C8.23195 15.0885 8.15335 15.0885 8.10487 15.137C8.05639 15.1854 8.05639 15.264 8.10487 15.3125C8.15335 15.361 8.23195 15.361 8.28043 15.3125Z" fill="white"/>
<path d="M9.75447 14.4647C9.9807 14.2385 9.9807 13.8717 9.75446 13.6454C9.52823 13.4192 9.16144 13.4192 8.9352 13.6454C8.70897 13.8717 8.70897 14.2384 8.9352 14.4647C9.16143 14.6909 9.52823 14.6909 9.75447 14.4647Z" fill="white"/>
<path d="M22.7796 1.80137C23.1028 1.47818 23.1028 0.954189 22.7796 0.630999C22.4564 0.30781 21.9324 0.307811 21.6092 0.631C21.286 0.95419 21.286 1.47818 21.6092 1.80137C21.9324 2.12456 22.4564 2.12456 22.7796 1.80137Z" fill="white"/>
<path d="M21.0976 3.29758C21.3723 3.02287 21.3723 2.57747 21.0976 2.30276C20.8229 2.02805 20.3775 2.02805 20.1028 2.30276C19.8281 2.57747 19.8281 3.02287 20.1028 3.29758C20.3775 3.57229 20.8229 3.57229 21.0976 3.29758Z" fill="white"/>
<path d="M19.5955 4.61227C19.8217 4.38604 19.8217 4.01924 19.5955 3.793C19.3692 3.56677 19.0024 3.56677 18.7762 3.79301C18.55 4.01924 18.55 4.38603 18.7762 4.61227C19.0024 4.8385 19.3692 4.8385 19.5955 4.61227Z" fill="white"/>
<path d="M18.2892 5.79211C18.475 5.60628 18.475 5.30498 18.2892 5.11914C18.1033 4.93331 17.802 4.93331 17.6162 5.11915C17.4304 5.30498 17.4304 5.60627 17.6162 5.79211C17.802 5.97794 18.1033 5.97794 18.2892 5.79211Z" fill="white"/>
<path d="M17.1023 6.79124C17.2396 6.65389 17.2396 6.43119 17.1023 6.29384C16.9649 6.15648 16.7422 6.15648 16.6048 6.29384C16.4675 6.43119 16.4675 6.65389 16.6048 6.79125C16.7422 6.9286 16.9649 6.9286 17.1023 6.79124Z" fill="white"/>
<path d="M16.1092 7.62492C16.1981 7.53604 16.1981 7.39194 16.1092 7.30306C16.0203 7.21419 15.8762 7.21419 15.7873 7.30306C15.6985 7.39194 15.6985 7.53604 15.7873 7.62492C15.8762 7.71379 16.0203 7.71379 16.1092 7.62492Z" fill="white"/>
<path d="M15.2674 8.30714C15.3158 8.25866 15.3158 8.18006 15.2674 8.13158C15.2189 8.0831 15.1403 8.0831 15.0918 8.13158C15.0433 8.18006 15.0433 8.25866 15.0918 8.30714C15.1403 8.35562 15.2189 8.35561 15.2674 8.30714Z" fill="white"/>
<path d="M14.4224 9.78402C14.6487 9.55779 14.6487 9.19099 14.4224 8.96476C14.1962 8.73853 13.8294 8.73853 13.6032 8.96476C13.3769 9.19099 13.3769 9.55779 13.6032 9.78402C13.8294 10.0103 14.1962 10.0103 14.4224 9.78402Z" fill="white"/>
<path d="M9.34481 12.2897C9.66476 12.2897 9.92412 12.0303 9.92412 11.7104C9.92412 11.3904 9.66476 11.131 9.34481 11.131C9.02487 11.131 8.7655 11.3904 8.7655 11.7104C8.7655 12.0303 9.02487 12.2897 9.34481 12.2897Z" fill="white"/>
<path d="M14.0207 12.2897C14.3407 12.2897 14.6 12.0303 14.6 11.7104C14.6 11.3904 14.3407 11.131 14.0207 11.131C13.7008 11.131 13.4414 11.3904 13.4414 11.7104C13.4414 12.0303 13.7008 12.2897 14.0207 12.2897Z" fill="white"/>
<path d="M1.19313 12.5379C1.65019 12.5379 2.02071 12.1674 2.02071 11.7103C2.02071 11.2533 1.65019 10.8828 1.19313 10.8828C0.736062 10.8828 0.36554 11.2533 0.36554 11.7103C0.36554 12.1674 0.736062 12.5379 1.19313 12.5379Z" fill="white"/>
<path d="M3.95841 12.2029C4.23312 11.9281 4.23312 11.4827 3.95841 11.208C3.6837 10.9333 3.23831 10.9333 2.96359 11.208C2.68888 11.4827 2.68888 11.9281 2.96359 12.2029C3.2383 12.4776 3.6837 12.4776 3.95841 12.2029Z" fill="white"/>
<path d="M5.90315 12.1258C6.12938 11.8995 6.12938 11.5327 5.90315 11.3065C5.67692 11.0803 5.31012 11.0803 5.08389 11.3065C4.85765 11.5327 4.85766 11.8995 5.08389 12.1258C5.31012 12.352 5.67692 12.352 5.90315 12.1258Z" fill="white"/>
<path d="M7.6472 12.0438C7.83304 11.858 7.83304 11.5567 7.6472 11.3709C7.46137 11.185 7.16007 11.185 6.97424 11.3709C6.7884 11.5567 6.78841 11.858 6.97424 12.0438C7.16007 12.2297 7.46137 12.2297 7.6472 12.0438Z" fill="white"/>
<path d="M22.1931 12.5379C22.6502 12.5379 23.0207 12.1674 23.0207 11.7103C23.0207 11.2533 22.6502 10.8828 22.1931 10.8828C21.7361 10.8828 21.3655 11.2533 21.3655 11.7103C21.3655 12.1674 21.7361 12.5379 22.1931 12.5379Z" fill="white"/>
<path d="M20.4086 12.2068C20.6833 11.932 20.6833 11.4867 20.4086 11.2119C20.1339 10.9372 19.6885 10.9372 19.4138 11.2119C19.1391 11.4867 19.1391 11.932 19.4138 12.2068C19.6885 12.4815 20.1339 12.4815 20.4086 12.2068Z" fill="white"/>
<path d="M18.2736 12.1229C18.4999 11.8967 18.4999 11.5299 18.2736 11.3036C18.0474 11.0774 17.6806 11.0774 17.4544 11.3036C17.2281 11.5299 17.2281 11.8967 17.4544 12.1229C17.6806 12.3491 18.0474 12.3491 18.2736 12.1229Z" fill="white"/>
<path d="M16.3993 12.0434C16.5852 11.8576 16.5852 11.5563 16.3993 11.3704C16.2135 11.1846 15.9122 11.1846 15.7264 11.3704C15.5405 11.5563 15.5405 11.8576 15.7264 12.0434C15.9122 12.2292 16.2135 12.2292 16.3993 12.0434Z" fill="white"/>
<path d="M11.6828 14.6276C12.0027 14.6276 12.2621 14.3682 12.2621 14.0483C12.2621 13.7284 12.0027 13.469 11.6828 13.469C11.3628 13.469 11.1035 13.7284 11.1035 14.0483C11.1035 14.3682 11.3628 14.6276 11.6828 14.6276Z" fill="white"/>
<path d="M11.6828 9.95171C12.0027 9.95171 12.2621 9.69234 12.2621 9.3724C12.2621 9.05245 12.0027 8.79309 11.6828 8.79309C11.3628 8.79309 11.1035 9.05245 11.1035 9.3724C11.1035 9.69234 11.3628 9.95171 11.6828 9.95171Z" fill="white"/>
<path d="M11.6827 23.0482C12.1398 23.0482 12.5103 22.6777 12.5103 22.2207C12.5103 21.7636 12.1398 21.3931 11.6827 21.3931C11.2257 21.3931 10.8552 21.7636 10.8552 22.2207C10.8552 22.6777 11.2257 23.0482 11.6827 23.0482Z" fill="white"/>
<path d="M12.1816 20.4445C12.4563 20.1698 12.4563 19.7244 12.1816 19.4497C11.9068 19.175 11.4615 19.175 11.1867 19.4497C10.912 19.7244 10.912 20.1698 11.1867 20.4446C11.4614 20.7193 11.9068 20.7193 12.1816 20.4445Z" fill="white"/>
<path d="M12.0898 18.3096C12.3161 18.0834 12.3161 17.7166 12.0899 17.4903C11.8636 17.2641 11.4968 17.2641 11.2706 17.4903C11.0444 17.7166 11.0444 18.0834 11.2706 18.3096C11.4968 18.5358 11.8636 18.5358 12.0898 18.3096Z" fill="white"/>
<path d="M12.0231 16.4352C12.2089 16.2494 12.2089 15.9481 12.0231 15.7623C11.8372 15.5764 11.5359 15.5764 11.3501 15.7623C11.1643 15.9481 11.1643 16.2494 11.3501 16.4352C11.5359 16.6211 11.8372 16.6211 12.0231 16.4352Z" fill="white"/>
<path d="M11.6827 2.04824C12.1398 2.04824 12.5103 1.67772 12.5103 1.22065C12.5103 0.763589 12.1398 0.393066 11.6827 0.393066C11.2257 0.393066 10.8552 0.763589 10.8552 1.22065C10.8552 1.67772 11.2257 2.04824 11.6827 2.04824Z" fill="white"/>
<path d="M12.1855 3.99435C12.4602 3.71964 12.4602 3.27425 12.1855 2.99954C11.9107 2.72483 11.4654 2.72483 11.1906 2.99954C10.9159 3.27425 10.9159 3.71964 11.1906 3.99436C11.4654 4.26907 11.9107 4.26907 12.1855 3.99435Z" fill="white"/>
<path d="M12.087 5.93911C12.3132 5.71288 12.3132 5.34609 12.087 5.11985C11.8608 4.89362 11.494 4.89362 11.2677 5.11985C11.0415 5.34608 11.0415 5.71288 11.2677 5.93911C11.494 6.16535 11.8608 6.16534 12.087 5.93911Z" fill="white"/>
<path d="M12.0227 7.68316C12.2085 7.49732 12.2085 7.19603 12.0227 7.0102C11.8369 6.82436 11.5356 6.82436 11.3497 7.0102C11.1639 7.19603 11.1639 7.49733 11.3497 7.68316C11.5356 7.86899 11.8369 7.86899 12.0227 7.68316Z" fill="white"/>
<path d="M6.8036 1.96579C7.21231 1.76111 7.37771 1.26387 7.17304 0.855165C6.96836 0.446459 6.47112 0.281057 6.06242 0.48573C5.65371 0.690403 5.48831 1.18764 5.69298 1.59635C5.89765 2.00506 6.3949 2.17046 6.8036 1.96579Z" fill="white"/>
<path d="M8.15875 3.41279C8.28276 3.04461 8.08481 2.64561 7.71663 2.5216C7.34844 2.39759 6.94944 2.59553 6.82543 2.96371C6.70142 3.3319 6.89936 3.7309 7.26755 3.85491C7.63573 3.97892 8.03473 3.78098 8.15875 3.41279Z" fill="white"/>
<path d="M8.83761 5.07206C8.93858 4.76846 8.77433 4.44049 8.47073 4.33952C8.16714 4.23855 7.83916 4.4028 7.73819 4.7064C7.63722 5.00999 7.80147 5.33796 8.10507 5.43894C8.40867 5.53991 8.73663 5.37565 8.83761 5.07206Z" fill="white"/>
<path d="M9.5078 6.56671C9.59075 6.31733 9.45582 6.04793 9.20644 5.96499C8.95706 5.88204 8.68765 6.01697 8.60471 6.26635C8.52177 6.51573 8.6567 6.78514 8.90608 6.86808C9.15546 6.95102 9.42486 6.8161 9.5078 6.56671Z" fill="white"/>
<path d="M10.0294 7.86165C10.0907 7.67732 9.991 7.4782 9.80667 7.41689C9.62235 7.35558 9.42323 7.45531 9.36192 7.63964C9.30061 7.82396 9.40034 8.02309 9.58466 8.08439C9.76899 8.1457 9.96811 8.04597 10.0294 7.86165Z" fill="white"/>
<path d="M17.6888 1.59296C17.8935 1.18425 17.7281 0.687008 17.3193 0.482335C16.9106 0.277662 16.4134 0.443063 16.2087 0.851769C16.0041 1.26048 16.1695 1.75772 16.5782 1.96239C16.9869 2.16706 17.4841 2.00166 17.6888 1.59296Z" fill="white"/>
<path d="M16.1865 3.83553C16.5551 3.71292 16.7546 3.31467 16.632 2.94602C16.5094 2.57737 16.1111 2.37791 15.7425 2.50053C15.3738 2.62314 15.1743 3.02138 15.297 3.39004C15.4196 3.75869 15.8178 3.95815 16.1865 3.83553Z" fill="white"/>
<path d="M15.3617 5.35372C15.6649 5.2516 15.8279 4.92301 15.7258 4.6198C15.6237 4.31659 15.2951 4.15357 14.9919 4.2557C14.6887 4.35782 14.5257 4.68642 14.6278 4.98963C14.7299 5.29284 15.0585 5.45585 15.3617 5.35372Z" fill="white"/>
<path d="M14.4812 6.88835C14.7306 6.8054 14.8655 6.536 14.7826 6.28662C14.6996 6.03724 14.4302 5.90231 14.1809 5.98526C13.9315 6.0682 13.7965 6.3376 13.8795 6.58699C13.9624 6.83637 14.2318 6.97129 14.4812 6.88835Z" fill="white"/>
<path d="M13.7806 8.09441C13.9649 8.0331 14.0646 7.83397 14.0033 7.64965C13.942 7.46532 13.7429 7.36559 13.5585 7.4269C13.3742 7.4882 13.2745 7.68733 13.3358 7.87166C13.3971 8.05598 13.5962 8.15571 13.7806 8.09441Z" fill="white"/>
<path d="M7.17951 22.598C7.38418 22.1893 7.21878 21.6921 6.81007 21.4874C6.40137 21.2827 5.90412 21.4481 5.69945 21.8568C5.49478 22.2655 5.66018 22.7628 6.06889 22.9675C6.47759 23.1721 6.97483 23.0067 7.17951 22.598Z" fill="white"/>
<path d="M7.62086 20.9487C7.98951 20.8261 8.18896 20.4278 8.06635 20.0592C7.94374 19.6905 7.54549 19.4911 7.17684 19.6137C6.80819 19.7363 6.60873 20.1345 6.73135 20.5032C6.85396 20.8718 7.2522 21.0713 7.62086 20.9487Z" fill="white"/>
<path d="M8.47061 19.0867C8.7742 18.9857 8.93846 18.6578 8.83748 18.3542C8.73651 18.0506 8.40854 17.8863 8.10494 17.9873C7.80135 18.0882 7.63709 18.4162 7.73807 18.7198C7.83904 19.0234 8.16701 19.1877 8.47061 19.0867Z" fill="white"/>
<path d="M9.20217 17.458C9.45155 17.3751 9.58647 17.1057 9.50353 16.8563C9.42059 16.6069 9.15118 16.472 8.9018 16.555C8.65242 16.6379 8.5175 16.9073 8.60044 17.1567C8.68338 17.4061 8.95278 17.541 9.20217 17.458Z" fill="white"/>
<path d="M9.82438 16.0158C10.0087 15.9545 10.1084 15.7554 10.0471 15.571C9.98582 15.3867 9.78669 15.287 9.60237 15.3483C9.41804 15.4096 9.31831 15.6087 9.37962 15.793C9.44092 15.9774 9.64005 16.0771 9.82438 16.0158Z" fill="white"/>
<path d="M17.3158 22.9651C17.7245 22.7604 17.8899 22.2631 17.6852 21.8544C17.4806 21.4457 16.9833 21.2803 16.5746 21.485C16.1659 21.6897 16.0005 22.1869 16.2052 22.5956C16.4099 23.0043 16.9071 23.1697 17.3158 22.9651Z" fill="white"/>
<path d="M16.6413 20.4914C16.7639 20.1227 16.5645 19.7245 16.1958 19.6018C15.8272 19.4792 15.4289 19.6787 15.3063 20.0473C15.1837 20.416 15.3831 20.8142 15.7518 20.9369C16.1204 21.0595 16.5187 20.86 16.6413 20.4914Z" fill="white"/>
<path d="M15.6521 18.7133C15.7531 18.4097 15.5888 18.0817 15.2852 17.9808C14.9816 17.8798 14.6537 18.044 14.5527 18.3476C14.4517 18.6512 14.616 18.9792 14.9196 19.0802C15.2232 19.1811 15.5511 19.0169 15.6521 18.7133Z" fill="white"/>
<path d="M14.7873 17.1521C14.8703 16.9027 14.7354 16.6333 14.486 16.5504C14.2366 16.4674 13.9672 16.6024 13.8843 16.8517C13.8013 17.1011 13.9362 17.3705 14.1856 17.4535C14.435 17.5364 14.7044 17.4015 14.7873 17.1521Z" fill="white"/>
<path d="M14.0022 15.7933C14.0635 15.609 13.9638 15.4098 13.7794 15.3485C13.5951 15.2872 13.396 15.387 13.3347 15.5713C13.2734 15.7556 13.3731 15.9547 13.5574 16.016C13.7418 16.0773 13.9409 15.9776 14.0022 15.7933Z" fill="white"/>
<path d="M1.56508 17.7065C1.97378 17.5018 2.13918 17.0046 1.93451 16.5959C1.72984 16.1872 1.2326 16.0218 0.82389 16.2265C0.415184 16.4311 0.249782 16.9284 0.454455 17.3371C0.659128 17.7458 1.15637 17.9112 1.56508 17.7065Z" fill="white"/>
<path d="M3.8916 16.3121C4.01561 15.944 3.81766 15.545 3.44948 15.4209C3.08129 15.2969 2.68229 15.4949 2.55828 15.8631C2.43427 16.2313 2.63221 16.6303 3.0004 16.7543C3.36858 16.8783 3.76759 16.6803 3.8916 16.3121Z" fill="white"/>
<path d="M5.4244 15.2995C5.52537 14.9959 5.36112 14.6679 5.05752 14.5669C4.75393 14.466 4.42596 14.6302 4.32498 14.9338C4.22401 15.2374 4.38827 15.5654 4.69186 15.6664C4.99546 15.7673 5.32342 15.6031 5.4244 15.2995Z" fill="white"/>
<path d="M6.85564 14.4977C6.93859 14.2484 6.80366 13.979 6.55428 13.896C6.30489 13.8131 6.03549 13.948 5.95255 14.1974C5.86961 14.4468 6.00453 14.7162 6.25391 14.7991C6.50329 14.8821 6.7727 14.7471 6.85564 14.4977Z" fill="white"/>
<path d="M8.05951 13.7952C8.12082 13.6109 8.02109 13.4117 7.83677 13.3504C7.65244 13.2891 7.45332 13.3888 7.39201 13.5732C7.3307 13.7575 7.43043 13.9566 7.61476 14.0179C7.79908 14.0792 7.9982 13.9795 8.05951 13.7952Z" fill="white"/>
<path d="M1.92615 6.82806C2.13082 6.41936 1.96542 5.92212 1.55671 5.71744C1.14801 5.51277 0.650766 5.67817 0.446094 6.08688C0.241421 6.49558 0.406822 6.99282 0.815528 7.1975C1.22423 7.40217 1.72148 7.23677 1.92615 6.82806Z" fill="white"/>
<path d="M3.35975 8.11574C3.7284 7.99313 3.92785 7.59488 3.80524 7.22623C3.68263 6.85758 3.28438 6.65813 2.91573 6.78074C2.54708 6.90335 2.34763 7.3016 2.47024 7.67025C2.59285 8.0389 2.9911 8.23835 3.35975 8.11574Z" fill="white"/>
<path d="M5.05825 8.86727C5.36185 8.76629 5.5261 8.43833 5.42513 8.13473C5.32416 7.83114 4.99619 7.66688 4.69259 7.76785C4.389 7.86883 4.22474 8.1968 4.32571 8.50039C4.42669 8.80399 4.75466 8.96824 5.05825 8.86727Z" fill="white"/>
<path d="M6.55696 9.53367C6.80635 9.45073 6.94127 9.18132 6.85833 8.93194C6.77538 8.68256 6.50598 8.54764 6.2566 8.63058C6.00722 8.71352 5.87229 8.98292 5.95523 9.2323C6.03818 9.48169 6.30758 9.61662 6.55696 9.53367Z" fill="white"/>
<path d="M7.83567 10.0575C8.01999 9.99617 8.11972 9.79705 8.05841 9.61272C7.99711 9.4284 7.79798 9.32867 7.61366 9.38997C7.42933 9.45128 7.32961 9.6504 7.39091 9.83473C7.45222 10.0191 7.65134 10.1188 7.83567 10.0575Z" fill="white"/>
<path d="M22.933 17.3352C23.1377 16.9265 22.9723 16.4293 22.5636 16.2246C22.1548 16.0199 21.6576 16.1853 21.4529 16.594C21.2483 17.0027 21.4137 17.5 21.8224 17.7046C22.2311 17.9093 22.7283 17.7439 22.933 17.3352Z" fill="white"/>
<path d="M20.4672 16.6619C20.8359 16.5393 21.0353 16.1411 20.9127 15.7724C20.7901 15.4038 20.3919 15.2043 20.0232 15.3269C19.6546 15.4496 19.4551 15.8478 19.5777 16.2165C19.7003 16.5851 20.0986 16.7846 20.4672 16.6619Z" fill="white"/>
<path d="M18.6905 15.6755C18.994 15.5745 19.1583 15.2466 19.0573 14.943C18.9564 14.6394 18.6284 14.4751 18.3248 14.5761C18.0212 14.6771 17.8569 15.005 17.9579 15.3086C18.0589 15.6122 18.3869 15.7765 18.6905 15.6755Z" fill="white"/>
<path d="M17.127 14.812C17.3764 14.729 17.5113 14.4596 17.4283 14.2103C17.3454 13.9609 17.076 13.826 16.8266 13.9089C16.5772 13.9918 16.4423 14.2612 16.5252 14.5106C16.6082 14.76 16.8776 14.8949 17.127 14.812Z" fill="white"/>
<path d="M15.7629 14.0337C15.9472 13.9724 16.0469 13.7732 15.9856 13.5889C15.9243 13.4046 15.7252 13.3049 15.5408 13.3662C15.3565 13.4275 15.2568 13.6266 15.3181 13.8109C15.3794 13.9953 15.5785 14.095 15.7629 14.0337Z" fill="white"/>
<path d="M22.5636 7.19662C22.9723 6.99195 23.1377 6.4947 22.933 6.086C22.7283 5.67729 22.2311 5.51189 21.8224 5.71657C21.4137 5.92124 21.2483 6.41848 21.4529 6.82719C21.6576 7.23589 22.1548 7.40129 22.5636 7.19662Z" fill="white"/>
<path d="M20.9036 7.64895C21.0262 7.2803 20.8267 6.88205 20.4581 6.75944C20.0894 6.63683 19.6912 6.83628 19.5686 7.20494C19.446 7.57359 19.6454 7.97183 20.0141 8.09444C20.3827 8.21706 20.781 8.0176 20.9036 7.64895Z" fill="white"/>
<path d="M19.0488 8.47989C19.1498 8.1763 18.9855 7.84833 18.6819 7.74736C18.3783 7.64638 18.0503 7.81064 17.9494 8.11423C17.8484 8.41783 18.0127 8.7458 18.3163 8.84677C18.6198 8.94775 18.9478 8.78349 19.0488 8.47989Z" fill="white"/>
<path d="M17.4396 9.22101C17.5225 8.97163 17.3876 8.70223 17.1382 8.61928C16.8888 8.53634 16.6194 8.67126 16.5365 8.92065C16.4535 9.17003 16.5885 9.43943 16.8378 9.52237C17.0872 9.60532 17.3566 9.47039 17.4396 9.22101Z" fill="white"/>
<path d="M15.9818 9.84053C16.0431 9.6562 15.9434 9.45708 15.7591 9.39577C15.5747 9.33447 15.3756 9.43419 15.3143 9.61852C15.253 9.80285 15.3527 10.002 15.5371 10.0633C15.7214 10.1246 15.9205 10.0249 15.9818 9.84053Z" fill="white"/>
<path d="M35.3931 11.8345L32 15.2897V21.3931H29.7034V2.40002H32V12.1862L41.5586 2.40002H44.5793L37.0069 10.138L44.6621 21.3931H41.8896L35.3931 11.8345Z" fill="white"/>
<path d="M58.3173 15.0414H47.4552C47.5793 16.5103 48.0759 17.6276 48.9035 18.4345C49.7517 19.2414 50.8276 19.6345 52.1517 19.6345C53.2069 19.6345 54.0759 19.4483 54.7793 19.0965C55.4414 18.7655 55.9586 18.2069 56.2069 17.5034L58.131 18.5172C57.5931 19.4896 56.8069 20.2965 55.8345 20.8551C54.8828 21.3931 53.6414 21.6621 52.1517 21.6621C49.9793 21.6621 48.2828 21 47.0414 19.6758C45.8 18.3517 45.2 16.5103 45.1793 14.1724C45.1793 11.8345 45.7793 9.99308 46.9586 8.66894C48.1379 7.34481 49.8138 6.68274 51.9862 6.68274C53.2069 6.64136 54.4069 6.95171 55.4621 7.5724C56.4138 8.15171 57.2 8.97929 57.6759 9.99308C58.1931 11.0689 58.4414 12.2276 58.4207 13.4276C58.4207 13.9862 58.4 14.5241 58.3173 15.0414ZM48.9035 9.84826C48.1173 10.5931 47.6621 11.6483 47.4759 13.0138H56.2069C56.0621 11.6689 55.6069 10.6138 54.8828 9.86895C54.1586 9.12412 53.1862 8.73102 51.9862 8.73102C50.7242 8.71033 49.6897 9.08274 48.9035 9.84826Z" fill="white"/>
<path d="M72.9655 8.11034C74.0207 9.04137 74.5586 10.4069 74.5586 12.1655V21.3724H72.2621V12.9724C72.2621 11.4828 71.9517 10.3862 71.3103 9.70344C70.669 9.02068 69.8 8.68965 68.7241 8.71034C67.9793 8.71034 67.2345 8.87585 66.5724 9.20689C65.869 9.5793 65.2897 10.1379 64.9172 10.8414C64.4828 11.6069 64.2759 12.5586 64.2759 13.6965V21.3517H61.9793V6.95172H63.9862L64.131 9.20689C64.5655 8.3793 65.269 7.69655 66.1172 7.28275C67.0069 6.86896 67.9793 6.64137 68.9724 6.66206C70.5655 6.70344 71.9103 7.17931 72.9655 8.11034Z" fill="white"/>
<path d="M91.131 15.0414H80.269C80.3931 16.5103 80.8897 17.6276 81.7172 18.4345C82.5655 19.2414 83.6414 19.6345 84.9655 19.6345C86.0207 19.6345 86.8897 19.4483 87.5931 19.0965C88.2552 18.7655 88.7724 18.2069 89.0207 17.5034L90.9448 18.5172C90.4069 19.4896 89.6207 20.2965 88.6483 20.8551C87.6966 21.3931 86.4552 21.6621 84.9655 21.6621C82.7931 21.6621 81.0966 21 79.8552 19.6758C78.6345 18.3517 78.0138 16.5103 77.9931 14.1724C77.9931 11.8345 78.5931 9.99308 79.7724 8.66894C80.9517 7.34481 82.6276 6.68274 84.8 6.68274C86.0207 6.64136 87.2207 6.95171 88.2759 7.5724C89.2276 8.15171 90.0138 8.97929 90.4897 9.99308C91.0069 11.0689 91.2552 12.2276 91.2345 13.4276C91.2552 13.9862 91.2138 14.5241 91.131 15.0414ZM81.7379 9.84826C80.9517 10.5931 80.4759 11.6483 80.3103 13.0138H89.0414C88.8966 11.6689 88.4414 10.6138 87.7172 9.86895C86.9931 9.12412 86.0207 8.73102 84.8207 8.73102C83.5379 8.71033 82.5241 9.08274 81.7379 9.84826Z" fill="white"/>
<path d="M103.152 20.3793C102.2 21.2483 100.959 21.6828 99.4276 21.6828C98.2482 21.6828 97.2965 21.3724 96.5724 20.731C95.8276 20.0897 95.4551 19.1172 95.4345 17.8345V8.99999H92.5586V7.01379H95.4345V3.55862L97.731 2.91724V7.01379H103.048V8.99999H97.731V17.4414C97.731 18.1241 97.9172 18.6621 98.3103 19.0138C98.7448 19.3862 99.3034 19.5724 99.8827 19.5517C100.814 19.5517 101.703 19.1586 102.324 18.4759L103.152 20.3793Z" fill="white"/>
<path d="M105.428 3.74481C105.097 3.41378 104.931 2.9586 104.952 2.48274C104.952 1.53102 105.717 0.765503 106.669 0.765503C107.621 0.765503 108.386 1.53102 108.386 2.48274C108.365 3.45516 107.559 4.24136 106.565 4.22067C106.172 4.22067 105.759 4.05516 105.428 3.74481ZM107.828 21.3931H105.531V6.99308H107.828V21.3931Z" fill="white"/>
<path d="M122.041 7.69659C123.076 8.40004 123.862 9.39314 124.359 10.5311L122.166 11.5656C121.545 9.66211 120.283 8.71038 118.338 8.71038C116.89 8.71038 115.772 9.18625 114.966 10.1587C114.159 11.1311 113.745 12.4759 113.745 14.1725C113.745 15.8897 114.159 17.2138 114.966 18.1862C115.772 19.1587 116.91 19.6345 118.338 19.6345C119.455 19.6345 120.345 19.3862 121.028 18.869C121.731 18.3311 122.207 17.5449 122.372 16.6552L124.503 17.4C124.069 18.6414 123.262 19.738 122.207 20.5242C121.172 21.269 119.91 21.6414 118.4 21.6414C116.228 21.6414 114.531 20.9793 113.29 19.6552C112.069 18.3311 111.448 16.4897 111.428 14.1518C111.428 11.8138 112.048 9.97245 113.29 8.64831C114.531 7.32417 116.228 6.66211 118.4 6.66211C119.848 6.70349 121.048 7.03452 122.041 7.69659Z" fill="white"/>
</g>
<defs>
<clipPath id="clip0_216_552">
<rect width="125" height="24" fill="white"/>
</clipPath>
</defs>
</svg>
