<svg width="100" height="24" viewBox="0 0 100 24" fill="none" xmlns="http://www.w3.org/2000/svg">
<g clip-path="url(#clip0_214_433)">
<path d="M20.5217 7.45751L7.99998 0.175171L6.43476 1.08612V2.90627L4.86954 1.99532L3.30432 2.90627V4.72641L1.73911 3.81546L0.173889 4.72641V19.2911L1.73911 20.202L3.30432 19.2911V21.1112L4.86954 22.0222L6.43476 21.1112V22.9314L7.99998 23.8423L20.5217 16.56V14.7398L18.9565 13.8289L20.5217 12.9179V11.0978L18.9565 10.1868L20.5217 9.2759V7.45751ZM3.30432 17.4709L1.73911 18.3819V5.63736L3.30432 6.54831V17.4709ZM7.99998 18.3801V16.56L14.2608 12.9197L15.8261 13.8306L7.99998 18.3801ZM12.6956 12.0087L7.99998 14.7398V9.27765L12.6956 12.0087ZM14.2608 11.0978L7.99998 7.45751V5.63736L15.8261 10.1886L14.2608 11.0978ZM4.86954 3.81546L6.43476 4.72641V6.54656L4.86954 5.63561V3.81546ZM4.86954 7.45751L6.43476 8.36845V15.6508L4.86954 16.5617V7.45751ZM4.86954 18.3801L6.43476 17.4692V19.2893L4.86954 20.2003V18.3801ZM18.9565 15.649L7.99998 22.0204V20.2003L17.3913 14.7381L18.9565 15.649ZM18.9565 12.0087L17.3913 12.9197L15.8261 12.0087L17.3913 11.0978L18.9565 12.0087ZM17.3913 9.27765L7.99998 3.81546V1.99532L18.9565 8.3667L17.3913 9.27765Z" fill="white"/>
<path d="M27.0244 18.3801H25.2174V5.63733H30.7305C33.2609 5.63733 34.7965 7.18419 34.7965 9.45981C34.7965 11.7354 33.2609 13.2823 30.7305 13.2823H27.0261V18.3801H27.0244ZM32.9896 9.45981C32.9896 8.18623 32.2661 7.18419 30.7305 7.18419H27.0261V11.7354H30.7305C32.2661 11.7354 32.9896 10.7334 32.9896 9.45981ZM35.4661 11.3711C35.647 9.85923 36.9113 8.63996 39.4609 8.63996C41.0157 8.63996 42.3339 9.05864 43.0035 10.1868C43.2922 10.6791 43.4557 11.3343 43.4557 12.0981V18.3784H41.72V17.1941C41.1774 17.9229 40.0939 18.6499 38.5565 18.6499C36.64 18.6499 35.0139 17.6478 35.0139 15.5544C35.0139 13.9165 36.1165 12.7515 38.4661 12.55L41.72 12.2767V12.0946C41.72 10.821 41.1774 10.0011 39.4609 10.0011C38.087 10.0011 37.3461 10.5477 37.2557 11.3658H35.4661V11.3711ZM41.7183 14.2843V13.5556L38.6452 13.8289C37.3791 13.9375 36.7478 14.5576 36.7478 15.5579C36.7478 16.8332 37.6522 17.287 38.7357 17.287C40.3635 17.2887 41.7183 16.1956 41.7183 14.2843ZM48.8035 10.3708C47.5391 10.3708 46.7252 11.0995 46.7252 12.7375V18.3819H44.9896V8.91324H46.7252V10.0064C47.1774 9.18653 47.8991 8.73105 49.2557 8.73105H49.7444V10.369H48.8035V10.3708ZM50.2678 11.3711C50.4487 9.85923 51.7131 8.63996 54.2626 8.63996C55.8174 8.63996 57.1357 9.05864 57.8052 10.1868C58.0939 10.6791 58.2574 11.3343 58.2574 12.0981V18.3784H56.5218V17.1941C55.9792 17.9229 54.8957 18.6499 53.3583 18.6499C51.4418 18.6499 49.8157 17.6478 49.8157 15.5544C49.8157 13.9165 50.9183 12.7515 53.2678 12.55L56.5218 12.2767V12.0946C56.5218 10.821 55.9792 10.0011 54.2626 10.0011C52.8887 10.0011 52.1478 10.5477 52.0574 11.3658H50.2678V11.3711ZM56.5218 14.2843V13.5556L53.4487 13.8289C52.1826 13.9375 51.5513 14.5576 51.5513 15.5579C51.5513 16.8332 52.4557 17.287 53.5392 17.287C55.1652 17.2887 56.5218 16.1956 56.5218 14.2843ZM66.7878 17.1065C66.2452 18.0175 65.1618 18.6534 63.7148 18.6534C60.8957 18.6534 59.36 16.3778 59.36 13.6467C59.36 10.9156 60.8957 8.63996 63.7148 8.63996C65.16 8.63996 66.2452 9.27762 66.7878 10.1868V5.63733H68.5218V18.3819H66.7861V17.1065H66.7878ZM63.9861 10.0975C62.0887 10.0975 61.0939 11.6443 61.0939 13.6467C61.0939 15.649 62.0887 17.1976 63.9861 17.1976C65.8835 17.1976 66.8783 15.5597 66.8783 13.6467C66.8783 11.7354 65.8835 10.0975 63.9861 10.0975ZM75.2105 16.9243V18.3801H69.6435V16.9243H71.56V10.3708H69.6435V8.91499H73.2939V16.9261H75.2105V16.9243ZM73.2939 7.45747H71.5583V5.63733H73.2939V7.45747ZM82.5113 16.9243C82.1496 17.4709 81.1565 18.289 79.5287 18.289C76.8905 18.289 75.1739 16.1045 75.1739 13.4645C75.1739 10.8245 76.8905 8.63996 79.5287 8.63996C81.1548 8.63996 82.1496 9.45981 82.5113 10.0046V8.91149H84.247V17.3763C84.247 20.3807 82.5305 21.9275 79.8 21.9275C77.7026 21.9275 76.167 20.8344 75.8052 19.1965H77.6122C77.7757 19.8516 78.4435 20.5611 79.7983 20.5611C81.7861 20.5611 82.5096 19.2875 82.5096 17.3746V16.9243H82.5113ZM79.7113 10.0975C77.9948 10.0975 76.9096 11.6443 76.9096 13.4662C76.9096 15.2864 77.9931 16.835 79.7113 16.835C81.5183 16.835 82.6035 15.2881 82.6035 13.4662C82.6018 11.6443 81.5183 10.0975 79.7113 10.0975ZM87.5722 10.0064C88.1148 9.00434 89.1983 8.64171 90.2835 8.64171C91.5478 8.64171 92.7235 9.18828 93.2661 10.2797C93.8087 9.27762 94.8018 8.64171 96.4296 8.64171C98.4174 8.64171 99.8644 9.82594 99.8644 12.1909V18.3801H98.1287V12.4642C98.1287 10.9173 97.4957 10.0975 96.0678 10.0975C94.8922 10.0975 93.7183 10.8262 93.7183 12.7375V18.3819H91.9826V12.4659C91.9826 10.9191 91.3496 10.0992 89.9218 10.0992C88.7461 10.0992 87.5722 10.828 87.5722 12.7392V18.3836H85.8365V8.91324H87.5722V10.0064Z" fill="white"/>
</g>
<defs>
<clipPath id="clip0_214_433">
<rect width="100" height="24" fill="white"/>
</clipPath>
</defs>
</svg>
