<svg width="89" height="24" viewBox="0 0 89 24" fill="none" xmlns="http://www.w3.org/2000/svg">
<path fill-rule="evenodd" clip-rule="evenodd" d="M5.16364 13.0159C6.42485 10.1317 7.692 7.24996 8.93876 4.35961C9.07643 4.04044 9.23382 3.92319 9.58471 3.92729C11.1692 3.94668 12.7541 3.94173 14.3387 3.93057C14.6359 3.92851 14.8277 3.97232 14.9619 4.28868C17.1563 9.46592 19.3648 14.6372 21.5678 19.8108C21.5923 19.8686 21.5852 19.9397 21.6 20.0635C20.6622 20.0635 19.7423 20.0434 18.8237 20.0723C18.3943 20.0858 18.3678 19.7644 18.2627 19.5173C16.5287 15.4394 14.789 11.3638 13.0915 7.27087C12.8693 6.73545 12.6073 6.54579 12.0527 6.59507C11.4904 6.64509 10.9639 6.48373 10.6684 7.28299C9.95199 9.22137 9.09489 11.1081 8.29443 13.0157C7.25088 13.0157 6.20726 13.0158 5.16364 13.0159Z" fill="white"/>
<path fill-rule="evenodd" clip-rule="evenodd" d="M5.95826 15.8185C5.21028 15.8187 4.50573 15.8189 3.90356 15.8189C3.28951 17.2152 2.67502 18.612 2.03638 20.0639C3.06492 20.0639 3.97621 20.0491 4.88652 20.0723C5.18846 20.08 5.33547 19.9769 5.44399 19.7167C5.98644 18.4146 6.54063 17.1171 7.09092 15.8182C6.7111 15.8183 6.33121 15.8185 5.95826 15.8185Z" fill="white"/>
<path fill-rule="evenodd" clip-rule="evenodd" d="M37.7455 8.59201C38.3538 7.16939 38.9649 5.74801 39.5662 4.32236C39.6326 4.16493 39.7085 4.1071 39.8778 4.10912C40.642 4.11869 41.4064 4.11624 42.1706 4.11074C42.314 4.10972 42.4065 4.13133 42.4712 4.28738C43.5296 6.84101 44.5947 9.3917 45.6572 11.9435C45.669 11.972 45.6656 12.0071 45.6728 12.0682C45.2205 12.0682 44.7768 12.0583 44.3338 12.0726C44.1267 12.0792 44.1139 11.9207 44.0632 11.7988C43.2269 9.78739 42.3878 7.77713 41.5691 5.75832C41.462 5.49423 41.3356 5.40068 41.0681 5.42499C40.7969 5.44966 40.5429 5.37007 40.4005 5.7643C40.0549 6.72039 39.6415 7.65101 39.2555 8.5919C38.7522 8.59194 38.2488 8.59198 37.7455 8.59201Z" fill="white"/>
<path fill-rule="evenodd" clip-rule="evenodd" d="M61.4182 8.59201C62.0265 7.16939 62.6376 5.74801 63.239 4.32236C63.3054 4.16493 63.3813 4.1071 63.5505 4.10912C64.3147 4.11869 65.0791 4.11624 65.8434 4.11074C65.9867 4.10972 66.0792 4.13133 66.1439 4.28738C67.2023 6.84101 68.2675 9.3917 69.3299 11.9435C69.3418 11.972 69.3384 12.0071 69.3455 12.0682C68.8932 12.0682 68.4495 12.0583 68.0065 12.0726C67.7994 12.0792 67.7866 11.9207 67.7359 11.7988C66.8996 9.78739 66.0606 7.77713 65.2418 5.75832C65.1347 5.49423 65.0083 5.40068 64.7408 5.42499C64.4697 5.44966 64.2157 5.37007 64.0732 5.7643C63.7276 6.72039 63.3143 7.65101 62.9282 8.5919C62.4249 8.59194 61.9216 8.59198 61.4182 8.59201Z" fill="white"/>
<path fill-rule="evenodd" clip-rule="evenodd" d="M31.0462 8.38838C31.4605 8.38838 31.7472 8.34998 31.9066 8.27316C32.0657 8.19634 32.1455 8.05553 32.1455 7.85078V5.63637C32.1455 5.43152 32.0657 5.29081 31.9066 5.21399C31.7472 5.13717 31.4605 5.09877 31.0462 5.09877H28.7203V8.38838H31.0462ZM28.7203 12.0364H27.1273V4.03638H31.0304C31.7418 4.03638 32.2968 4.12175 32.695 4.29242C33.0933 4.4632 33.3801 4.74261 33.5555 5.13073C33.7306 5.51922 33.8182 6.05453 33.8182 6.7372C33.8182 7.69304 33.6215 8.37557 33.2287 8.78517C32.8358 9.19484 32.1826 9.39959 31.2693 9.39959H28.7203V12.0364Z" fill="white"/>
<path fill-rule="evenodd" clip-rule="evenodd" d="M50.5722 8.19634H52.9738C53.3872 8.19634 53.6736 8.15794 53.8326 8.08112C53.9916 8.0043 54.0711 7.8636 54.0711 7.65874V5.63637C54.0711 5.43152 53.9916 5.29081 53.8326 5.21399C53.6736 5.13717 53.3872 5.09877 52.9738 5.09877H50.5722V8.19634ZM54.4847 12.0364L52.8306 9.20755H50.5722V12.0364H48.9818V4.03638H52.9578C53.668 4.03638 54.2222 4.12175 54.6198 4.29242C55.0174 4.4632 55.3037 4.74261 55.4787 5.13073C55.6536 5.51922 55.7411 6.05449 55.7411 6.73717C55.7411 7.39444 55.6376 7.90834 55.431 8.27953C55.2242 8.6508 54.8875 8.90895 54.4211 9.05391L56.2182 12.0364H54.4847Z" fill="white"/>
<path fill-rule="evenodd" clip-rule="evenodd" d="M74.8663 12.0364H73.2728V4.03638H78.6909L78.5156 5.0988H74.8663V7.69717H78.0535V8.70837H74.8663V12.0364Z" fill="white"/>
<mask id="mask0_216_502" style="mask-type:luminance" maskUnits="userSpaceOnUse" x="21" y="0" width="68" height="24">
<path d="M21.4909 24H88.3636V0H21.4909V24Z" fill="#23496E"/>
</mask>
<g mask="url(#mask0_216_502)">
<path fill-rule="evenodd" clip-rule="evenodd" d="M82.9091 12.0364H84.4728V4.03638H82.9091V12.0364Z" fill="white"/>
</g>
<mask id="mask1_216_502" style="mask-type:luminance" maskUnits="userSpaceOnUse" x="21" y="0" width="68" height="24">
<path d="M21.4909 24H88.3636V0H21.4909V24Z" fill="#23496E"/>
</mask>
<g mask="url(#mask1_216_502)">
<path fill-rule="evenodd" clip-rule="evenodd" d="M37.1182 9.92761C36.8222 10.6198 36.526 11.3122 36.2182 12.032C36.714 12.032 37.1532 12.0246 37.592 12.0361C37.7376 12.04 37.8084 11.9888 37.8607 11.8598C38.1222 11.2143 38.3893 10.5711 38.6546 9.92725C38.4715 9.92732 38.2884 9.92739 38.1086 9.92743C37.7481 9.9275 37.4085 9.92761 37.1182 9.92761Z" fill="white"/>
</g>
<mask id="mask2_216_502" style="mask-type:luminance" maskUnits="userSpaceOnUse" x="21" y="0" width="68" height="24">
<path d="M21.4909 24H88.3636V0H21.4909V24Z" fill="#23496E"/>
</mask>
<g mask="url(#mask2_216_502)">
<path fill-rule="evenodd" clip-rule="evenodd" d="M61.8254 9.92743C61.4624 9.9275 61.1205 9.92761 60.829 9.92761C60.5324 10.6198 60.2357 11.3122 59.9272 12.032C60.4225 12.032 60.8612 12.0247 61.2996 12.0361C61.4449 12.0399 61.5158 11.989 61.568 11.8604C61.8301 11.2147 62.0978 10.5713 62.3636 9.92725C62.1831 9.92732 62.0026 9.92735 61.8254 9.92743Z" fill="white"/>
</g>
<mask id="mask3_216_502" style="mask-type:luminance" maskUnits="userSpaceOnUse" x="21" y="0" width="68" height="24">
<path d="M21.4909 24H88.3636V0H21.4909V24Z" fill="#23496E"/>
</mask>
<g mask="url(#mask3_216_502)">
<path fill-rule="evenodd" clip-rule="evenodd" d="M31.4909 18.8713V17.674C31.4909 17.2925 31.576 17.015 31.746 16.8418C31.9161 16.6684 32.1866 16.5818 32.5576 16.5818H33.1811C33.4972 16.5818 33.7325 16.6492 33.8871 16.784C34.0417 16.9188 34.1275 17.135 34.1448 17.4325C34.1516 17.5236 34.1069 17.569 34.0108 17.569C33.9284 17.569 33.8837 17.5236 33.8768 17.4325C33.8631 17.219 33.8047 17.0694 33.7016 16.9835C33.5985 16.8978 33.425 16.8548 33.1811 16.8548H32.5576C32.3584 16.8548 32.2012 16.8812 32.0861 16.9336C31.971 16.9862 31.8877 17.0711 31.8362 17.1884C31.7847 17.3057 31.7589 17.4675 31.7589 17.674V18.8713C31.7589 19.078 31.7847 19.2398 31.8362 19.3571C31.8877 19.4744 31.971 19.5593 32.0861 19.6118C32.2012 19.6643 32.36 19.6906 32.5628 19.6906H33.1811C33.425 19.6906 33.5985 19.6486 33.7016 19.5646C33.8047 19.4805 33.8631 19.33 33.8768 19.113C33.8837 19.0219 33.9284 18.9764 34.0108 18.9764C34.1069 18.9764 34.1516 19.0236 34.1448 19.1182C34.1275 19.4158 34.0417 19.631 33.8871 19.7641C33.7325 19.8972 33.4972 19.9636 33.1811 19.9636H32.5628C32.1918 19.9636 31.9203 19.8762 31.7486 19.701C31.5768 19.526 31.4909 19.2494 31.4909 18.8713Z" fill="white"/>
</g>
<mask id="mask4_216_502" style="mask-type:luminance" maskUnits="userSpaceOnUse" x="21" y="0" width="68" height="24">
<path d="M21.4909 24H88.3636V0H21.4909V24Z" fill="#23496E"/>
</mask>
<g mask="url(#mask4_216_502)">
<path fill-rule="evenodd" clip-rule="evenodd" d="M40.5287 18.7768H41.9804L41.2545 17.0124L40.5287 18.7768ZM42.6909 19.8376C42.6909 19.8831 42.6619 19.9199 42.604 19.9478C42.5835 19.9583 42.5613 19.9636 42.5375 19.9636C42.4898 19.9636 42.4558 19.9356 42.4353 19.8796L42.0929 19.0499H42.0775H40.4213L40.0789 19.8796C40.055 19.9356 40.0175 19.9636 39.9664 19.9636C39.9493 19.9636 39.9272 19.9583 39.9 19.9478C39.8454 19.9268 39.8182 19.8884 39.8182 19.8323C39.8182 19.8044 39.8216 19.7833 39.8284 19.7693L41.0961 16.6868C41.1233 16.6168 41.1744 16.5818 41.2494 16.5818H41.2596C41.3278 16.5818 41.3772 16.6168 41.4079 16.6868L42.6755 19.7693C42.6857 19.7938 42.6909 19.8166 42.6909 19.8376Z" fill="white"/>
</g>
<mask id="mask5_216_502" style="mask-type:luminance" maskUnits="userSpaceOnUse" x="21" y="0" width="68" height="24">
<path d="M21.4909 24H88.3636V0H21.4909V24Z" fill="#23496E"/>
</mask>
<g mask="url(#mask5_216_502)">
<path fill-rule="evenodd" clip-rule="evenodd" d="M50.3881 17.4903C50.3881 17.2697 50.3395 17.1087 50.2421 17.0072C50.1448 16.9056 49.9868 16.8548 49.7683 16.8548H48.7027V18.2832H49.7683C49.9868 18.2832 50.1448 18.2333 50.2421 18.1336C50.3395 18.0338 50.3881 17.8719 50.3881 17.6478V17.4903ZM50.4291 16.8128C50.5793 16.967 50.6545 17.1928 50.6545 17.4903V17.6478C50.6545 17.9454 50.5803 18.1712 50.4317 18.3252C50.2831 18.4793 50.062 18.5562 49.7683 18.5562H48.7027V19.8271C48.7027 19.9182 48.6583 19.9636 48.5695 19.9636C48.4807 19.9636 48.4363 19.9182 48.4363 19.8271V16.7183C48.4363 16.6273 48.4807 16.5818 48.5695 16.5818H49.7683C50.0585 16.5818 50.2788 16.6588 50.4291 16.8128Z" fill="white"/>
</g>
<mask id="mask6_216_502" style="mask-type:luminance" maskUnits="userSpaceOnUse" x="21" y="0" width="68" height="24">
<path d="M21.4909 24H88.3636V0H21.4909V24Z" fill="#23496E"/>
</mask>
<g mask="url(#mask6_216_502)">
<path fill-rule="evenodd" clip-rule="evenodd" d="M56.4706 19.9268C56.4477 19.9024 56.4363 19.869 56.4363 19.8271V16.7183C56.4363 16.6763 56.4477 16.6431 56.4706 16.6186C56.4934 16.5941 56.5244 16.5818 56.5636 16.5818C56.6028 16.5818 56.6338 16.5941 56.6566 16.6186C56.6795 16.6431 56.6909 16.6763 56.6909 16.7183V19.8271C56.6909 19.869 56.6795 19.9024 56.6566 19.9268C56.6338 19.9514 56.6028 19.9636 56.5636 19.9636C56.5244 19.9636 56.4934 19.9514 56.4706 19.9268Z" fill="white"/>
</g>
<mask id="mask7_216_502" style="mask-type:luminance" maskUnits="userSpaceOnUse" x="21" y="0" width="68" height="24">
<path d="M21.4909 24H88.3636V0H21.4909V24Z" fill="#23496E"/>
</mask>
<g mask="url(#mask7_216_502)">
<path fill-rule="evenodd" clip-rule="evenodd" d="M63.7775 19.9243C63.7517 19.8981 63.7389 19.8658 63.7389 19.8273V16.8544H62.6428C62.605 16.8544 62.5734 16.8413 62.5477 16.8151C62.5219 16.7888 62.5091 16.7566 62.5091 16.7181C62.5091 16.6762 62.5219 16.643 62.5477 16.6185C62.5734 16.5941 62.605 16.5818 62.6428 16.5818H65.1025C65.1438 16.5818 65.1763 16.5941 65.2002 16.6185C65.2243 16.643 65.2364 16.6762 65.2364 16.7181C65.2364 16.7566 65.2243 16.7888 65.2002 16.8151C65.1763 16.8413 65.1438 16.8544 65.1025 16.8544H64.0064V19.8273C64.0064 19.8658 63.9944 19.8981 63.9705 19.9243C63.9465 19.9506 63.9138 19.9636 63.8727 19.9636C63.8349 19.9636 63.8032 19.9506 63.7775 19.9243Z" fill="white"/>
</g>
<mask id="mask8_216_502" style="mask-type:luminance" maskUnits="userSpaceOnUse" x="21" y="0" width="68" height="24">
<path d="M21.4909 24H88.3636V0H21.4909V24Z" fill="#23496E"/>
</mask>
<g mask="url(#mask8_216_502)">
<path fill-rule="evenodd" clip-rule="evenodd" d="M70.6013 18.7768H72.0531L71.3273 17.0124L70.6013 18.7768ZM72.7637 19.8376C72.7637 19.8831 72.7345 19.9199 72.6767 19.9478C72.6562 19.9583 72.634 19.9636 72.6103 19.9636C72.5625 19.9636 72.5285 19.9356 72.508 19.8796L72.1655 19.0499H72.1502H70.494L70.1516 19.8796C70.1277 19.9356 70.0902 19.9636 70.0391 19.9636C70.022 19.9636 69.9999 19.9583 69.9727 19.9478C69.9181 19.9268 69.8909 19.8884 69.8909 19.8323C69.8909 19.8044 69.8942 19.7833 69.9011 19.7693L71.1688 16.6868C71.196 16.6168 71.2471 16.5818 71.3221 16.5818H71.3324C71.4004 16.5818 71.4498 16.6168 71.4805 16.6868L72.7482 19.7693C72.7584 19.7938 72.7637 19.8166 72.7637 19.8376Z" fill="white"/>
</g>
<mask id="mask9_216_502" style="mask-type:luminance" maskUnits="userSpaceOnUse" x="21" y="0" width="68" height="24">
<path d="M21.4909 24H88.3636V0H21.4909V24Z" fill="#23496E"/>
</mask>
<g mask="url(#mask9_216_502)">
<path fill-rule="evenodd" clip-rule="evenodd" d="M78.5455 19.8271V16.7184C78.5455 16.6273 78.5898 16.5818 78.6787 16.5818C78.7675 16.5818 78.812 16.6273 78.812 16.7184V19.6906H80.3758C80.4647 19.6906 80.5091 19.7361 80.5091 19.8271C80.5091 19.9182 80.4647 19.9636 80.3758 19.9636H78.6787C78.5898 19.9636 78.5455 19.9182 78.5455 19.8271Z" fill="white"/>
</g>
</svg>
