<svg width="241" height="24" viewBox="0 0 241 24" fill="none" xmlns="http://www.w3.org/2000/svg">
<path d="M10.1962 15.6997H7.20576V23.9999H0V0.0778809H12.1777C15.2042 0.0778809 17.51 0.742382 19.0953 2.07139C20.6805 3.40039 21.4732 5.34557 21.4732 7.90692C21.4732 11.3865 19.996 13.7183 17.0416 14.9023L22.8423 23.9999H14.8078L10.1962 15.6997ZM7.20576 10.6616H10.7726C11.9736 10.6616 12.8263 10.4622 13.3307 10.0635C13.8351 9.66483 14.0873 9.00637 14.0873 8.08815C14.0873 7.16993 13.8291 6.50542 13.3126 6.09464C12.7962 5.68386 11.9496 5.47847 10.7726 5.47847H7.20576V10.6616Z" fill="white"/>
<path d="M29.5547 24H22.7761L31.146 0H37.9246L29.5547 24Z" fill="white"/>
<path d="M40.4044 24H33.6257L41.9956 0H48.7742L40.4044 24Z" fill="white"/>
<path d="M59.4482 18V7.09091H63.7521C64.576 7.09091 65.2791 7.23828 65.8615 7.53303C66.4474 7.82422 66.8931 8.23793 67.1985 8.77415C67.5075 9.30682 67.6619 9.93359 67.6619 10.6545C67.6619 11.3789 67.5057 12.0021 67.1932 12.5241C66.8807 13.0426 66.4279 13.4403 65.8349 13.7173C65.2454 13.9943 64.5316 14.1328 63.6935 14.1328H60.8118V12.2791H63.3207C63.761 12.2791 64.1268 12.2187 64.418 12.098C64.7092 11.9773 64.9258 11.7962 65.0678 11.5547C65.2134 11.3132 65.2862 11.0131 65.2862 10.6545C65.2862 10.2923 65.2134 9.98686 65.0678 9.73828C64.9258 9.4897 64.7074 9.30149 64.4126 9.17365C64.1214 9.04226 63.7539 8.97656 63.31 8.97656H61.7546V18H59.4482ZM65.3395 13.0355L68.0508 18H65.5046L62.8519 13.0355H65.3395ZM69.2919 18V7.09091H76.6428V8.99254H71.5984V11.592H76.2646V13.4936H71.5984V16.0984H76.6641V18H69.2919ZM88.1018 10.9102H85.7687C85.7261 10.6083 85.6391 10.3402 85.5077 10.1058C85.3763 9.8679 85.2077 9.66548 85.0017 9.49858C84.7957 9.33168 84.5578 9.20383 84.2879 9.11506C84.0216 9.02628 83.7322 8.98189 83.4197 8.98189C82.855 8.98189 82.3632 9.12216 81.9442 9.4027C81.5251 9.67969 81.2002 10.0845 80.9694 10.6172C80.7385 11.1463 80.6231 11.7891 80.6231 12.5455C80.6231 13.3232 80.7385 13.9766 80.9694 14.5057C81.2037 15.0348 81.5305 15.4343 81.9495 15.7042C82.3685 15.9741 82.8532 16.109 83.4037 16.109C83.7126 16.109 83.9985 16.0682 84.2613 15.9865C84.5276 15.9048 84.7638 15.7859 84.9697 15.6296C85.1757 15.4698 85.3461 15.2763 85.4811 15.049C85.6196 14.8217 85.7155 14.5625 85.7687 14.2713L88.1018 14.282C88.0415 14.7827 87.8905 15.2656 87.6491 15.7308C87.4111 16.1925 87.0898 16.6062 86.6849 16.9719C86.2836 17.3342 85.8042 17.6218 85.2467 17.8349C84.6927 18.0444 84.066 18.1491 83.3664 18.1491C82.3934 18.1491 81.5233 17.929 80.7563 17.4886C79.9928 17.0483 79.3891 16.4109 78.9452 15.5763C78.5049 14.7418 78.2847 13.7315 78.2847 12.5455C78.2847 11.3558 78.5084 10.3438 78.9559 9.50923C79.4033 8.67472 80.0106 8.03906 80.7776 7.60227C81.5447 7.16193 82.4076 6.94176 83.3664 6.94176C83.9985 6.94176 84.5844 7.03054 85.1242 7.2081C85.6675 7.38565 86.1487 7.64489 86.5677 7.98579C86.9868 8.32315 87.3277 8.73686 87.5905 9.22692C87.8568 9.71697 88.0273 10.2781 88.1018 10.9102ZM92.0622 7.09091V18H89.7558V7.09091H92.0622ZM93.9599 18V7.09091H98.2638C99.0913 7.09091 99.7962 7.24893 100.379 7.56499C100.961 7.87749 101.405 8.3125 101.71 8.87003C102.019 9.42401 102.174 10.0632 102.174 10.7876C102.174 11.5121 102.017 12.1513 101.705 12.7053C101.392 13.2592 100.94 13.6907 100.347 13.9996C99.7571 14.3086 99.0433 14.4631 98.2053 14.4631H95.462V12.6147H97.8324C98.2763 12.6147 98.642 12.5384 98.9297 12.3857C99.2209 12.2294 99.4375 12.0146 99.5795 11.7411C99.7251 11.4641 99.7979 11.1463 99.7979 10.7876C99.7979 10.4254 99.7251 10.1094 99.5795 9.83949C99.4375 9.56605 99.2209 9.35476 98.9297 9.20561C98.6385 9.05291 98.2692 8.97656 97.8217 8.97656H96.2663V18H93.9599ZM103.672 18V7.09091H107.976C108.8 7.09091 109.503 7.23828 110.085 7.53303C110.671 7.82422 111.117 8.23793 111.422 8.77415C111.731 9.30682 111.886 9.93359 111.886 10.6545C111.886 11.3789 111.729 12.0021 111.417 12.5241C111.104 13.0426 110.652 13.4403 110.059 13.7173C109.469 13.9943 108.755 14.1328 107.917 14.1328H105.035V12.2791H107.544C107.985 12.2791 108.35 12.2187 108.642 12.098C108.933 11.9773 109.149 11.7962 109.291 11.5547C109.437 11.3132 109.51 11.0131 109.51 10.6545C109.51 10.2923 109.437 9.98686 109.291 9.73828C109.149 9.4897 108.931 9.30149 108.636 9.17365C108.345 9.04226 107.978 8.97656 107.534 8.97656H105.978V18H103.672ZM109.563 13.0355L112.274 18H109.728L107.076 13.0355H109.563ZM123.54 12.5455C123.54 13.7351 123.315 14.7472 122.864 15.5817C122.416 16.4162 121.806 17.0536 121.032 17.494C120.261 17.9308 119.394 18.1491 118.432 18.1491C117.463 18.1491 116.593 17.929 115.822 17.4886C115.051 17.0483 114.442 16.4109 113.995 15.5763C113.547 14.7418 113.324 13.7315 113.324 12.5455C113.324 11.3558 113.547 10.3438 113.995 9.50923C114.442 8.67472 115.051 8.03906 115.822 7.60227C116.593 7.16193 117.463 6.94176 118.432 6.94176C119.394 6.94176 120.261 7.16193 121.032 7.60227C121.806 8.03906 122.416 8.67472 122.864 9.50923C123.315 10.3438 123.54 11.3558 123.54 12.5455ZM121.202 12.5455C121.202 11.7749 121.087 11.125 120.856 10.5959C120.628 10.0668 120.307 9.66548 119.892 9.39205C119.476 9.11861 118.99 8.98189 118.432 8.98189C117.875 8.98189 117.388 9.11861 116.973 9.39205C116.557 9.66548 116.234 10.0668 116.003 10.5959C115.776 11.125 115.662 11.7749 115.662 12.5455C115.662 13.3161 115.776 13.9659 116.003 14.495C116.234 15.0241 116.557 15.4254 116.973 15.6989C117.388 15.9723 117.875 16.109 118.432 16.109C118.99 16.109 119.476 15.9723 119.892 15.6989C120.307 15.4254 120.628 15.0241 120.856 14.495C121.087 13.9659 121.202 13.3161 121.202 12.5455ZM134.874 10.9102H132.541C132.499 10.6083 132.412 10.3402 132.28 10.1058C132.149 9.8679 131.98 9.66548 131.774 9.49858C131.568 9.33168 131.33 9.20383 131.06 9.11506C130.794 9.02628 130.505 8.98189 130.192 8.98189C129.627 8.98189 129.136 9.12216 128.717 9.4027C128.298 9.67969 127.973 10.0845 127.742 10.6172C127.511 11.1463 127.396 11.7891 127.396 12.5455C127.396 13.3232 127.511 13.9766 127.742 14.5057C127.976 15.0348 128.303 15.4343 128.722 15.7042C129.141 15.9741 129.626 16.109 130.176 16.109C130.485 16.109 130.771 16.0682 131.034 15.9865C131.3 15.9048 131.536 15.7859 131.742 15.6296C131.948 15.4698 132.119 15.2763 132.254 15.049C132.392 14.8217 132.488 14.5625 132.541 14.2713L134.874 14.282C134.814 14.7827 134.663 15.2656 134.422 15.7308C134.184 16.1925 133.862 16.6062 133.457 16.9719C133.056 17.3342 132.577 17.6218 132.019 17.8349C131.465 18.0444 130.838 18.1491 130.139 18.1491C129.166 18.1491 128.296 17.929 127.529 17.4886C126.765 17.0483 126.162 16.4109 125.718 15.5763C125.277 14.7418 125.057 13.7315 125.057 12.5455C125.057 11.3558 125.281 10.3438 125.728 9.50923C126.176 8.67472 126.783 8.03906 127.55 7.60227C128.317 7.16193 129.18 6.94176 130.139 6.94176C130.771 6.94176 131.357 7.03054 131.897 7.2081C132.44 7.38565 132.921 7.64489 133.34 7.98579C133.759 8.32315 134.1 8.73686 134.363 9.22692C134.629 9.71697 134.8 10.2781 134.874 10.9102ZM138.203 18H135.732L139.498 7.09091H142.47L146.231 18H143.759L141.027 9.58381H140.941L138.203 18ZM138.049 13.712H143.887V15.5124H138.049V13.712ZM147.544 18V7.09091H149.85V16.0984H154.527V18H147.544ZM161.497 7.09091L164.134 15.3793H164.235L166.877 7.09091H169.434L165.673 18H162.701L158.935 7.09091H161.497ZM170.747 18V7.09091H178.098V8.99254H173.053V11.592H177.72V13.4936H173.053V16.0984H178.119V18H170.747ZM189.056 7.09091V18H187.064L182.318 11.1339H182.238V18H179.932V7.09091H181.956L186.665 13.9517H186.76V7.09091H189.056ZM190.546 8.99254V7.09091H199.506V8.99254H196.166V18H193.886V8.99254H190.546ZM207.72 7.09091H210.026V14.1754C210.026 14.9709 209.836 15.6669 209.456 16.2635C209.08 16.8601 208.552 17.3253 207.874 17.6591C207.196 17.9893 206.406 18.1545 205.504 18.1545C204.598 18.1545 203.806 17.9893 203.128 17.6591C202.45 17.3253 201.922 16.8601 201.546 16.2635C201.17 15.6669 200.981 14.9709 200.981 14.1754V7.09091H203.288V13.9783C203.288 14.3938 203.378 14.7631 203.559 15.0863C203.744 15.4094 204.003 15.6634 204.337 15.848C204.671 16.0327 205.06 16.125 205.504 16.125C205.951 16.125 206.34 16.0327 206.67 15.848C207.004 15.6634 207.262 15.4094 207.443 15.0863C207.627 14.7631 207.72 14.3938 207.72 13.9783V7.09091ZM211.924 18V7.09091H216.228C217.052 7.09091 217.755 7.23828 218.337 7.53303C218.923 7.82422 219.369 8.23793 219.674 8.77415C219.983 9.30682 220.138 9.93359 220.138 10.6545C220.138 11.3789 219.981 12.0021 219.669 12.5241C219.356 13.0426 218.903 13.4403 218.31 13.7173C217.721 13.9943 217.007 14.1328 216.169 14.1328H213.287V12.2791H215.796C216.237 12.2791 216.602 12.2187 216.894 12.098C217.185 11.9773 217.401 11.7962 217.543 11.5547C217.689 11.3132 217.762 11.0131 217.762 10.6545C217.762 10.2923 217.689 9.98686 217.543 9.73828C217.401 9.4897 217.183 9.30149 216.888 9.17365C216.597 9.04226 216.229 8.97656 215.786 8.97656H214.23V18H211.924ZM217.815 13.0355L220.526 18H217.98L215.328 13.0355H217.815ZM221.767 18V7.09091H229.118V8.99254H224.074V11.592H228.74V13.4936H224.074V16.0984H229.14V18H221.767ZM236.87 10.2283C236.827 9.79865 236.645 9.46484 236.321 9.22692C235.998 8.98899 235.56 8.87003 235.006 8.87003C234.629 8.87003 234.311 8.9233 234.052 9.02983C233.793 9.13281 233.594 9.27663 233.456 9.46129C233.321 9.64595 233.253 9.85547 233.253 10.0898C233.246 10.2852 233.287 10.4556 233.376 10.6012C233.468 10.7468 233.594 10.8729 233.754 10.9794C233.914 11.0824 234.098 11.1729 234.308 11.2511C234.517 11.3256 234.741 11.3896 234.979 11.4428L235.959 11.6772C236.435 11.7837 236.872 11.9258 237.27 12.1033C237.667 12.2809 238.012 12.4993 238.303 12.7585C238.594 13.0178 238.82 13.3232 238.979 13.6747C239.143 14.0263 239.226 14.4293 239.23 14.8839C239.226 15.5515 239.056 16.1303 238.718 16.6204C238.385 17.1069 237.902 17.4851 237.27 17.755C236.641 18.0213 235.883 18.1545 234.995 18.1545C234.114 18.1545 233.347 18.0195 232.694 17.7496C232.044 17.4798 231.536 17.0803 231.17 16.5511C230.808 16.0185 230.618 15.3597 230.6 14.5749H232.832C232.857 14.9407 232.962 15.2461 233.147 15.4911C233.335 15.7326 233.585 15.9155 233.898 16.0398C234.214 16.1605 234.571 16.2209 234.968 16.2209C235.359 16.2209 235.698 16.1641 235.986 16.0504C236.277 15.9368 236.502 15.7788 236.662 15.5763C236.822 15.3739 236.902 15.1413 236.902 14.8786C236.902 14.6335 236.829 14.4276 236.684 14.2607C236.542 14.0937 236.332 13.9517 236.055 13.8345C235.782 13.7173 235.446 13.6108 235.048 13.5149L233.86 13.2166C232.941 12.9929 232.214 12.6431 231.682 12.1673C231.149 11.6914 230.885 11.0504 230.888 10.2443C230.885 9.58381 231.06 9.00675 231.415 8.51314C231.774 8.01953 232.266 7.63423 232.891 7.35724C233.516 7.08026 234.226 6.94176 235.022 6.94176C235.831 6.94176 236.538 7.08026 237.142 7.35724C237.749 7.63423 238.221 8.01953 238.559 8.51314C238.896 9.00675 239.07 9.57848 239.081 10.2283H236.87Z" fill="white"/>
</svg>
