<svg width="65" height="24" viewBox="0 0 65 24" fill="none" xmlns="http://www.w3.org/2000/svg">
<g clip-path="url(#clip0_216_444)">
<path d="M3.53734 0.867497L5.64818 0.896412C7.1036 0.828943 8.59758 0.732557 9.85059 0.78075C9.83131 0.549425 10.0337 0.530148 10.0144 0.298822C9.09878 -0.173467 7.20962 0.0578585 5.58071 0.0578585C4.44336 0.0578585 2.94938 -0.279491 2.6795 0.626533C2.70842 0.954243 3.19035 0.838581 3.53734 0.867497Z" fill="white"/>
<path d="M0.655411 2.64098C0.934929 1.92772 1.5518 1.55182 1.54216 0.539774C1.31083 0.453027 1.1277 0.308447 0.732519 0.375917C0.12529 0.761459 -0.0578423 2.20724 0.655411 2.64098Z" fill="white"/>
<path d="M0.973511 21.9566C0.973511 21.9952 0.973511 22.0337 0.973511 22.0627C1.10845 23.9711 1.0217 20.0386 0.973511 21.9566Z" fill="white"/>
<path d="M0.732534 17.1566C0.356631 16.9253 0.269884 17.5711 0.00964265 17.7253C-0.0289116 18.5928 -0.00963445 19.412 0.250607 19.9807C-0.019273 21.9374 0.00964265 18.6506 0.00964265 20.8386C0.00964265 21.841 -0.17349 22.9976 0.578317 23.3349C1.04097 23.1325 0.983136 22.5446 0.983136 22.0723C0.877112 20.5205 1.23374 18.4578 0.732534 17.1566Z" fill="white"/>
<path d="M11.2964 6.51568C12.0193 6.53496 11.8265 5.52291 11.8651 4.98315C11.9036 4.26026 12.2217 3.02653 12.1832 1.91809C12.1446 0.539779 11.7398 -0.703595 10.9783 0.472309C11.2868 2.5446 10.8048 4.83858 11.2964 6.51568Z" fill="white"/>
<path d="M2.02412 23.3253C1.82171 23.3832 1.7446 23.5856 1.78315 23.894C2.40966 24.0386 3.28677 23.9807 4.11568 23.9807C4.91568 23.9807 5.86026 24.1735 6.294 23.7398C5.93737 23.3542 5.17593 23.3735 4.5205 23.335C3.7205 23.2868 2.80484 23.3639 2.02412 23.3253Z" fill="white"/>
<path d="M1.0988 3.23853C0.963864 3.44094 0.906032 3.6048 0.944587 3.73974C0.983141 3.87468 1.13736 3.93251 1.42651 3.91323C1.68676 3.89396 2.26507 3.99998 3.16145 4.22167C3.36386 4.26986 3.46989 4.25058 3.47953 4.14456C3.4988 4.04817 3.39278 3.91323 3.18073 3.75902C3.11326 3.71082 3.02651 3.65299 2.91085 3.57588C2.80483 3.50841 2.68916 3.44094 2.56386 3.37347C2.4482 3.306 2.33254 3.23853 2.21688 3.17106C2.10121 3.10359 2.00483 3.0554 1.92772 3.01685C1.80242 2.93974 1.6482 2.91082 1.50362 2.9301C1.36868 2.93974 1.23374 3.04576 1.0988 3.23853Z" fill="white"/>
<path d="M9.70602 3.33494C9.60963 3.29639 9.50361 3.29639 9.40722 3.3253C9.16626 3.3735 8.9253 3.40241 8.67469 3.40241C8.32771 3.41205 7.9518 3.41205 7.55662 3.41205C7.1518 3.40241 6.76626 3.39277 6.39999 3.3735C6.02409 3.34458 5.75421 3.3253 5.57108 3.29639C5.40722 3.25783 5.22409 3.26747 5.06987 3.3253C4.94457 3.38313 4.79999 3.53735 4.63614 3.78795C4.54939 3.92289 4.51084 4.03856 4.52048 4.13494C4.53012 4.21205 4.55903 4.28916 4.6265 4.33735C4.69397 4.38554 4.77108 4.41446 4.84819 4.41446C4.93493 4.41446 5.01204 4.38554 5.08915 4.33735C5.23373 4.26024 5.38795 4.19277 5.54216 4.15422C5.70602 4.11566 5.94698 4.06747 6.26505 4.01928C6.63132 3.97109 6.98795 3.94217 7.35421 3.94217C7.72048 3.93253 8.09638 3.95181 8.46265 3.99036C8.72289 4.01928 8.89638 4.08675 8.99277 4.18313C9.08915 4.27952 9.14698 4.44338 9.16626 4.65542C9.18554 4.81928 9.16626 4.99277 9.12771 5.15663C9.0506 5.48434 8.96385 5.80241 8.84819 6.12048C8.77108 6.35181 8.69397 6.55422 8.61686 6.71807C8.53975 6.89157 8.47228 7.05542 8.39518 7.2C8.32771 7.34458 8.24096 7.47952 8.15421 7.61446C8.06747 7.73976 7.98072 7.86506 7.87469 7.99036C7.67228 7.78795 7.47951 7.58554 7.26746 7.3735C7.06505 7.16145 6.87228 6.95904 6.69879 6.76627C6.51566 6.5735 6.36144 6.4 6.2265 6.24578C6.09156 6.09157 5.99518 5.9759 5.93734 5.8988C5.6771 5.58072 5.40722 5.51325 5.11807 5.70603C4.9253 5.81205 4.82891 5.92771 4.82891 6.04337C4.82891 6.15904 4.89638 6.23615 5.04096 6.29398C5.20481 6.36145 5.36867 6.43856 5.52289 6.5253C5.65783 6.61205 5.79277 6.6988 5.91807 6.80482C6.14939 7.00723 6.4 7.23855 6.67951 7.50843C6.95903 7.77831 7.24819 8.07711 7.53734 8.39518C7.23855 8.72289 6.91084 9.03133 6.56385 9.32048C6.25542 9.57109 5.91807 9.79277 5.56144 9.9759C5.21445 10.1494 4.84819 10.294 4.48192 10.4C4.08674 10.5157 3.69156 10.6024 3.29638 10.6699C3.19036 10.6795 3.08433 10.7373 3.01686 10.8241C2.95903 10.9012 2.93012 10.9976 2.93975 11.0843C2.95903 11.1807 3.0265 11.2675 3.12289 11.3157C3.22891 11.3831 3.38313 11.412 3.5759 11.4024C4.09638 11.3735 4.60722 11.2578 5.08915 11.0651C5.57108 10.8819 6.01445 10.6217 6.40963 10.3036C6.72771 10.0434 7.01686 9.79277 7.2771 9.55181C7.53734 9.31085 7.76867 9.06988 7.96144 8.84819C8.13494 9.04096 8.28915 9.2241 8.43373 9.39759C8.57831 9.57109 8.72289 9.74458 8.84819 9.8988C9.07951 10.1976 9.27228 10.4482 9.44578 10.6506C9.60963 10.853 9.76385 11.0361 9.87951 11.1807C9.9759 11.2964 10.0916 11.412 10.1976 11.5277C10.2747 11.6048 10.3518 11.6723 10.4385 11.7301C10.5735 11.8361 10.7855 11.8747 11.0747 11.8458C11.2675 11.8169 11.4506 11.759 11.6241 11.6819C11.7205 11.7205 11.8265 11.759 11.9229 11.788C11.9325 11.7012 11.9422 11.6048 11.9518 11.4988L11.9614 11.4892C12.1639 11.3639 12.2602 11.2771 12.2699 11.2386C12.2795 11.2 12.1928 11.1422 12.0289 11.0651L12.0096 11.0554C12.1542 9.7253 12.3181 7.86506 11.1325 7.75904C10.9301 8.57831 10.9012 9.60964 10.959 10.5542C10.8916 10.5157 10.8241 10.4771 10.7566 10.4386C10.641 10.3711 10.5253 10.294 10.3904 10.1976C10.0337 9.95663 9.69638 9.70602 9.36867 9.43615C9.0024 9.13735 8.64578 8.80964 8.29879 8.46265C8.48192 8.23133 8.65542 7.99036 8.80963 7.73976C8.95421 7.4988 9.07951 7.24819 9.18554 6.99759C9.24337 6.86265 9.31084 6.6988 9.37831 6.51566C9.44578 6.33253 9.51325 6.1494 9.57108 5.97591C9.62891 5.79277 9.68674 5.62892 9.7253 5.4747C9.76385 5.35904 9.79277 5.23374 9.8024 5.10844C9.83132 4.9735 9.86024 4.82892 9.90843 4.69398C9.95662 4.53012 10.0145 4.35663 10.0723 4.18313C10.1108 4.07711 10.1205 3.95181 10.0916 3.83615C10.0626 3.73012 10.0145 3.63374 9.94698 3.54699C9.89879 3.42169 9.81204 3.36386 9.70602 3.33494Z" fill="white"/>
<path d="M12.4144 15.9518C12.3566 15.9132 12.2891 15.8843 12.212 15.8747C12.1253 15.865 12.0289 15.8361 11.9325 15.8072C11.9807 15.6915 12.0289 15.5759 12.0964 15.4602C12.0578 14.7952 12.1831 13.9759 12.0096 13.4458C10.6795 12.3566 10.8723 14.4482 11.1325 15.5373C11.1132 15.5277 11.094 15.5181 11.065 15.5084C10.5927 15.2771 10.1205 15.0265 9.64817 14.747C9.18552 14.4675 8.70359 14.1494 8.20239 13.7831C7.91323 13.5807 7.68191 13.3976 7.50841 13.2626C7.32528 13.1277 7.1807 13.0024 7.06504 12.8867C6.95901 12.8 6.87227 12.694 6.78552 12.5879C6.71805 12.5012 6.66022 12.3952 6.61203 12.2891C6.51564 12.1253 6.40962 12.0482 6.28432 12.0675C6.15901 12.0867 6.01444 12.2602 5.86986 12.5687C5.7542 12.8096 5.53251 13.0795 5.2048 13.3879C4.84817 13.7253 4.45299 14.0241 4.03853 14.294C3.55661 14.6024 3.04576 14.8819 2.52528 15.1132C2.02407 15.3349 1.50359 15.5084 0.973473 15.6337C0.983111 14.853 0.915641 13.9855 0.963834 13.4361C1.02167 13.0891 1.4554 13.1181 1.44576 12.7132C1.38793 12.4241 1.11805 12.1253 0.983111 11.8072C0.944557 11.7783 0.906003 11.759 0.85781 11.7397C0.838533 11.7397 0.828894 11.547 0.819256 11.2482C0.828894 11.2578 0.828894 11.2675 0.838533 11.2771C0.944557 11.3831 1.09877 11.3542 1.29155 11.1807C1.43612 11.0554 1.59034 10.9301 1.74456 10.8048C1.89877 10.6891 2.06263 10.5638 2.22648 10.4289C2.39034 10.3036 2.58311 10.1494 2.79516 9.99517C3.00721 9.84095 3.23853 9.64818 3.48913 9.44577C3.54697 9.40721 3.58552 9.34938 3.61444 9.28191C3.63371 9.23372 3.64335 9.17589 3.63371 9.1277C3.62407 9.08914 3.59516 9.05059 3.55661 9.03131C3.50841 9.01203 3.45058 9.02167 3.41203 9.04095C3.12287 9.18552 2.84335 9.3301 2.57347 9.45541C2.30359 9.58071 2.08191 9.67709 1.92769 9.74456C1.81203 9.79276 1.69636 9.84095 1.57106 9.8795C1.40721 9.91806 1.24335 9.95661 1.0795 9.98553C0.983111 10.0048 0.886726 10.053 0.809617 10.1205C0.819256 8.99275 0.848172 7.70119 0.848172 7.70119L0.867449 7.12287C1.06986 7.12287 1.31082 7.12288 1.59998 7.13251C1.96624 7.15179 2.32287 7.16143 2.6795 7.18071C2.88191 7.19998 2.99757 7.15179 3.01685 7.04577C3.02648 6.9301 2.94938 6.84336 2.7566 6.74697C2.5542 6.66022 2.33251 6.57348 2.09154 6.47709C1.84094 6.39034 1.59034 6.29396 1.33974 6.20721C1.2048 6.15902 1.06022 6.13974 0.915641 6.16866L1.00239 4.06745C0.934919 3.73974 0.771063 3.50842 0.404798 3.49878C0.221665 4.04818 0.375883 4.91565 0.318051 5.59998C0.279497 5.86023 0.00961731 5.88914 -2.12465e-05 6.16866V14.3132C-2.12465e-05 14.9687 -0.163877 15.8458 0.202388 16.3277V16.3373C0.240942 16.4434 0.32769 16.5108 0.433714 16.5397C0.452991 16.5494 0.462629 16.559 0.481906 16.5687C0.491545 16.5687 0.491545 16.559 0.501183 16.5494C0.703593 16.5879 1.00239 16.5397 1.39757 16.4144C1.69636 16.3277 1.99516 16.2217 2.28432 16.0964C2.61203 15.9518 2.9301 15.7879 3.23853 15.6048C3.57588 15.4024 3.96142 15.1422 4.37588 14.8337C4.79034 14.5253 5.28191 14.1397 5.8313 13.6771C5.94697 13.5807 6.05299 13.494 6.13974 13.4265C6.20721 13.3687 6.29395 13.3301 6.3807 13.3108C6.45781 13.3012 6.54456 13.3012 6.62166 13.3205C6.73733 13.359 6.85299 13.4072 6.96865 13.465C7.01685 13.494 7.15179 13.5903 7.38311 13.7446C7.6048 13.8988 7.86504 14.1012 8.1542 14.3325C8.45299 14.5638 8.76142 14.8144 9.08914 15.0747C9.41685 15.3349 9.71564 15.5855 9.98552 15.8072C10.2265 16.0193 10.4193 16.1831 10.5831 16.3084C10.7084 16.4048 10.8434 16.4916 10.9783 16.5494C11.0747 18.9494 10.7759 17.5036 11.1036 20.0289L10.7566 20C10.294 19.9614 9.86986 19.9325 9.49395 19.9036C9.11805 19.8747 8.77106 19.8554 8.45299 19.8458C8.13492 19.8265 7.83612 19.8169 7.5566 19.8169C7.27709 19.8072 6.98793 19.8169 6.69877 19.8265V19.0843C6.69877 18.8048 6.70841 18.506 6.71805 18.1976C7.08432 18.1783 7.45058 18.1783 7.80721 18.1976C8.07709 18.2168 8.33733 18.2458 8.59757 18.2843C8.82889 18.3325 8.99275 18.3325 9.08914 18.294C9.2048 18.2361 9.30118 18.1397 9.35902 18.0144C9.53251 17.7253 9.48432 17.6 9.22407 17.6289C9.14697 17.6385 9.04094 17.6482 8.906 17.6578C8.79998 17.6675 8.69395 17.6675 8.58793 17.6578C8.47227 17.6578 8.32769 17.6578 8.17347 17.6482C8.01926 17.6385 7.84576 17.6385 7.67227 17.6385C7.49877 17.6385 7.32528 17.6385 7.16142 17.6482C6.99757 17.6578 6.84335 17.6578 6.71805 17.6578C6.71805 17.3783 6.71805 17.1084 6.72769 16.8578C6.73733 16.5976 6.73733 16.3662 6.74697 16.1638C7.20962 16.1638 7.56624 16.1735 7.79757 16.1928C7.99998 16.212 8.19275 16.2409 8.38552 16.2795C8.73251 16.3662 8.95419 16.3277 9.05058 16.1446C9.14697 15.9903 9.17588 15.8747 9.13733 15.7976C9.10841 15.7301 9.00239 15.6723 8.80962 15.6144C8.71323 15.5952 8.58793 15.5759 8.44335 15.5662C8.29877 15.5566 8.106 15.547 7.8554 15.547C7.6048 15.547 7.29636 15.5566 6.9301 15.5662C6.56383 15.5759 6.09155 15.5952 5.52287 15.6241C5.36865 15.6337 5.23371 15.6434 5.13733 15.6434H4.88673C4.81926 15.6434 4.75179 15.6434 4.70359 15.6337C4.64576 15.6241 4.58793 15.6144 4.5301 15.5952C4.39516 15.5662 4.26022 15.5662 4.12528 15.5952C3.9807 15.6241 3.82648 15.6723 3.69155 15.7397C3.56624 15.7976 3.46022 15.8747 3.36383 15.9711C3.28673 16.0385 3.25781 16.1446 3.28673 16.2409C3.33492 16.3952 3.42167 16.4915 3.55661 16.5205C3.68191 16.5494 3.88432 16.5205 4.1542 16.4434C4.28913 16.4048 4.42408 16.3662 4.55901 16.3373C4.69395 16.3084 4.81926 16.2795 4.96383 16.2602C5.09877 16.2409 5.25299 16.2217 5.40721 16.212C5.57106 16.2024 5.7542 16.1928 5.95661 16.1831C5.96624 16.4144 5.97588 16.6554 5.97588 16.9156C5.98552 17.1759 5.98552 17.4458 5.99516 17.7156C5.49395 17.7349 5.11805 17.7446 4.87709 17.7349C4.71323 17.7349 4.53974 17.7253 4.37588 17.6964C4.22167 17.6482 4.04817 17.6578 3.90359 17.7156C3.70118 17.8024 3.52769 17.9373 3.40239 18.1108C3.33492 18.1783 3.27709 18.265 3.24817 18.3518C3.21926 18.4096 3.22889 18.4771 3.27709 18.5253C3.32528 18.5638 3.41203 18.5831 3.53733 18.5831C3.72046 18.5735 3.91323 18.5349 4.08673 18.4771C4.28914 18.4289 4.53974 18.3807 4.85781 18.3422C5.16624 18.294 5.56142 18.2554 6.02407 18.2265C6.03371 18.5638 6.04335 18.8723 6.04335 19.1422V19.8747C5.66745 19.894 5.25299 19.9229 4.79998 19.9711L3.22889 20.1253C3.01685 20.1446 2.83371 20.1638 2.66022 20.1735C2.49636 20.1928 2.3807 20.1928 2.33251 20.1928C2.19757 20.2024 2.08191 20.212 1.99516 20.2313C1.91805 20.2409 1.85058 20.2699 1.78311 20.3084C1.72528 20.347 1.66745 20.3952 1.61926 20.453C1.56142 20.5301 1.50359 20.6072 1.4554 20.694C1.38793 20.7903 1.36865 20.906 1.40721 21.012C1.44576 21.1084 1.52287 21.1855 1.60962 21.2144C1.73492 21.2626 1.86986 21.2819 1.99516 21.2626C2.16865 21.2434 2.33251 21.1952 2.47709 21.1181C2.69877 21.0217 2.9301 20.9349 3.16142 20.8771C3.4795 20.7903 3.82648 20.7036 4.20239 20.6265C4.57829 20.5494 4.96383 20.4819 5.35901 20.4241C5.7542 20.3662 6.09154 20.3373 6.3807 20.3277C6.71805 20.3181 7.04576 20.3373 7.37347 20.3759C7.72046 20.4144 8.05781 20.4626 8.38552 20.5301C8.69395 20.5879 8.99275 20.665 9.29154 20.7518C9.52287 20.8193 9.7542 20.906 9.97588 21.012C10.265 21.1566 10.4964 21.2241 10.6891 21.1952C10.8048 21.1759 10.9205 21.1181 11.0072 21.0506C11.0458 21.2434 11.1711 21.359 11.2289 21.5422C10.8819 22.0241 11.1614 23.1422 10.506 23.3156C9.94697 23.2867 9.25299 23.3928 8.80962 23.2385C8.86745 22.9397 8.9542 22.6891 8.73251 22.5156H8.16383C8.07709 23.1229 7.58552 23.3349 7.51805 23.9614C8.73251 23.9132 10.1494 24.0675 11.2289 23.8747C11.547 23.5084 11.7301 23.3446 11.8361 23.2771C11.7397 23.2 11.6241 22.9012 11.6337 21.9759C11.6434 21.5518 11.8361 21.1759 11.8747 20.7711C12.0385 19.2675 11.6434 17.7446 11.7783 16.5205C11.9325 16.453 12.0867 16.3759 12.2313 16.2795C12.318 16.2313 12.3952 16.1542 12.4434 16.0771C12.4723 16.0385 12.4626 15.9807 12.4144 15.9518Z" fill="white"/>
<path d="M25.6964 1.9566L25.8024 6.41925H25.3976C25.2048 5.30118 24.7422 4.39515 23.9904 3.72046C23.2386 3.03612 22.4289 2.69877 21.5615 2.69877C20.8868 2.69877 20.3567 2.8819 19.9615 3.23853C19.5663 3.59515 19.3735 4.00961 19.3735 4.4819C19.3639 4.76142 19.441 5.0313 19.5759 5.27226C19.7687 5.5807 20.0771 5.88913 20.4916 6.18792C20.8 6.40961 21.5133 6.79515 22.641 7.34455C24.2121 8.11563 25.2627 8.84816 25.8121 9.5325C26.3422 10.1976 26.6314 11.0361 26.6217 11.8843C26.6217 13.0024 26.188 13.9662 25.3109 14.7759C24.4338 15.5855 23.3253 15.9903 21.9856 15.9903C21.5807 15.9903 21.1856 15.9518 20.7904 15.865C20.3085 15.7397 19.8362 15.5855 19.3735 15.3831C19.0554 15.2482 18.7952 15.1807 18.5928 15.1807C18.4 15.1903 18.2073 15.2578 18.053 15.3831C17.841 15.5373 17.6868 15.7494 17.5904 15.9903H17.2241V10.9205H17.5904C17.8795 12.347 18.4386 13.4361 19.2675 14.1783C20.0964 14.9205 20.9832 15.2964 21.947 15.2964C22.6892 15.2964 23.2771 15.0939 23.7109 14.6891C24.1446 14.2843 24.3663 13.8217 24.3663 13.2819C24.3663 12.9542 24.2795 12.6361 24.106 12.3566C23.9036 12.0289 23.6434 11.7397 23.3446 11.5084C22.9976 11.2385 22.3904 10.8915 21.5229 10.4674C20.3085 9.86985 19.4314 9.35901 18.8916 8.93491C18.3904 8.54937 17.9759 8.06744 17.6579 7.51804C17.3687 6.98792 17.2241 6.39997 17.2241 5.80238C17.2241 4.7325 17.6193 3.82648 18.4 3.07467C19.1807 2.32286 20.1735 1.94696 21.3687 1.94696C21.7928 1.94696 22.2169 1.99515 22.6313 2.10118C23.0265 2.2072 23.4024 2.36142 23.7591 2.54455C24.2024 2.7566 24.5109 2.86262 24.694 2.86262C24.8482 2.87226 24.9928 2.81443 25.0988 2.70841C25.1952 2.60238 25.2916 2.35178 25.3783 1.94696L25.6964 1.9566Z" fill="white"/>
<path d="M34.853 15.2964V15.6627H27.8458V15.2964H28.2891C28.6747 15.2964 28.9927 15.2289 29.2241 15.094C29.4072 14.988 29.5518 14.8145 29.6193 14.6217C29.6964 14.4675 29.7253 14.053 29.7253 13.3783V4.55905C29.7253 3.87471 29.6867 3.44098 29.6193 3.27712C29.5421 3.10363 29.3976 2.95905 29.1759 2.82411C28.9542 2.69881 28.6554 2.63134 28.2795 2.63134H27.8361V2.26508H34.8434V2.63134H34.4096C34.0241 2.63134 33.706 2.69881 33.4747 2.83375C33.2915 2.93977 33.147 3.11327 33.0699 3.30604C32.9927 3.46026 32.9638 3.87471 32.9638 4.54941V13.3687C32.9638 14.053 33.0024 14.4868 33.0795 14.6506C33.1566 14.8145 33.3012 14.9687 33.5229 15.1036C33.7446 15.2289 34.0434 15.2964 34.4193 15.2964H34.853Z" fill="white"/>
<path d="M40.3566 2.26508L46.9687 10.5735V4.80965C46.9687 4.00965 46.853 3.46026 46.6217 3.18074C46.3036 2.7952 45.7735 2.61206 45.0313 2.63134V2.26508H49.4554V2.63134C48.8867 2.70845 48.5108 2.7952 48.3181 2.91086C48.106 3.0458 47.9518 3.23857 47.865 3.46989C47.759 3.73014 47.7012 4.17351 47.7012 4.80965V15.9711H47.3638L38.3036 4.80965V13.3301C38.3036 14.1012 38.4771 14.6217 38.8337 14.8916C39.1807 15.1615 39.6048 15.306 40.0482 15.2964H40.3662V15.6627H35.6144V15.2964C36.3566 15.2868 36.8675 15.1422 37.1566 14.8434C37.4458 14.5446 37.5903 14.0434 37.5903 13.3301V3.87471L37.3012 3.51809C37.0217 3.16146 36.7711 2.93014 36.5494 2.81447C36.3277 2.69881 36.0193 2.64098 35.6144 2.63134V2.26508H40.3566Z" fill="white"/>
<path d="M57.7639 2.07228C59.9036 1.99517 61.6386 2.61204 62.9687 3.94216C64.2988 5.27228 64.9735 6.92047 64.9735 8.91565C64.9735 10.612 64.4723 12.1157 63.4795 13.4072C62.1591 15.1229 60.2988 15.9807 57.8988 15.9807C55.4892 15.9807 53.6289 15.1614 52.3085 13.5325C51.2675 12.241 50.747 10.7084 50.747 8.93493C50.747 6.94939 51.4217 5.28192 52.7807 3.96144C54.1205 2.62168 55.7783 1.99517 57.7639 2.07228ZM57.8795 2.70842C56.6554 2.70842 55.7205 3.33493 55.0844 4.58794C54.5639 5.61927 54.3036 7.09397 54.3036 9.01204C54.3036 11.2964 54.7085 12.9928 55.5085 14.0819C56.0675 14.8434 56.8482 15.2289 57.8603 15.2289C58.535 15.2289 59.1036 15.065 59.5566 14.7373C60.135 14.3132 60.588 13.6385 60.906 12.7132C61.2241 11.7879 61.388 10.5831 61.388 9.08915C61.388 7.31565 61.2241 5.99517 60.8964 5.10842C60.5687 4.23132 60.1446 3.60481 59.6338 3.24818C59.1229 2.89156 58.506 2.69879 57.8795 2.70842Z" fill="white"/>
<path d="M20.5301 18.5928L20.6265 19.7879H20.5301C20.4338 19.4891 20.3085 19.2675 20.1446 19.1132C19.9133 18.8916 19.5952 18.7759 19.2771 18.7855C18.7952 18.7855 18.4289 18.9783 18.1783 19.3542C17.9663 19.7012 17.8506 20.0964 17.8603 20.5012C17.8506 20.8385 17.9277 21.1759 18.0627 21.4843C18.1783 21.7542 18.3711 21.9759 18.6121 22.1398C18.8241 22.2747 19.0651 22.3422 19.306 22.3422C19.441 22.3422 19.5759 22.3229 19.7109 22.294C19.8458 22.2554 19.9711 22.2072 20.0868 22.1398V21.0506C20.0868 20.8578 20.0771 20.7422 20.0482 20.6747C20.0193 20.6169 19.9711 20.5687 19.9133 20.5398C19.8073 20.5012 19.7012 20.4819 19.5952 20.4916V20.3855H21.0603V20.4916H20.9928C20.8482 20.4916 20.7518 20.5398 20.694 20.6361C20.6554 20.7036 20.6362 20.8385 20.6362 21.041V22.1976C20.4338 22.3036 20.2217 22.3904 20 22.4482C19.7687 22.506 19.5374 22.5349 19.306 22.5253C18.5735 22.5253 18.0241 22.294 17.6482 21.8217C17.3687 21.4843 17.2145 21.0506 17.2241 20.6072C17.2338 19.8747 17.6193 19.2 18.2458 18.8145C18.6603 18.5928 19.1422 18.5253 19.6048 18.612C19.7687 18.6506 19.9229 18.6988 20.0868 18.7566C20.1542 18.7855 20.2217 18.8048 20.2892 18.8145C20.3277 18.8145 20.3566 18.7952 20.3759 18.7663C20.4048 18.7084 20.4241 18.641 20.4241 18.5735L20.5301 18.5928Z" fill="white"/>
<path d="M24.4241 21.4072L24.5108 21.4265L24.1928 22.4578H21.2626V22.3518H21.4072C21.5711 22.3518 21.6867 22.3036 21.7542 22.1976C21.7928 22.1397 21.812 22.0048 21.812 21.7831V19.3446C21.812 19.1132 21.7831 18.959 21.7349 18.9012C21.6482 18.8144 21.5325 18.7662 21.4072 18.7759H21.2626V18.6699H22.9687V18.7759C22.7662 18.7759 22.6217 18.7952 22.5446 18.8337C22.4771 18.8626 22.4193 18.9108 22.3807 18.9783C22.3518 19.0361 22.3325 19.1807 22.3325 19.4024V21.7831C22.3229 21.8891 22.3422 21.9952 22.3807 22.1012C22.4 22.1397 22.4385 22.1687 22.4867 22.1879C22.5349 22.2072 22.6795 22.2168 22.9205 22.2168H23.2C23.4891 22.2168 23.6915 22.1976 23.8072 22.1494C23.9325 22.1012 24.0385 22.0241 24.1253 21.9181C24.2506 21.7735 24.347 21.6 24.4241 21.4072Z" fill="white"/>
<path d="M26.7181 18.5928C27.2 18.5928 27.6627 18.7952 27.9904 19.1518C28.347 19.5277 28.5301 19.9904 28.5301 20.5494C28.5301 21.1277 28.347 21.6 27.9904 21.9759C27.2964 22.7085 26.1494 22.7374 25.4265 22.0434C25.4072 22.0241 25.388 22.0048 25.3687 21.9856C25.0121 21.6193 24.8386 21.1374 24.8386 20.5494C24.8386 19.9518 25.041 19.4603 25.4554 19.0844C25.7928 18.7566 26.2458 18.5831 26.7181 18.5928ZM26.6699 18.7952C26.3518 18.7856 26.053 18.9205 25.8602 19.1711C25.6096 19.4795 25.4747 19.9422 25.4747 20.5494C25.4747 21.1663 25.6096 21.6386 25.8699 21.9759C26.0627 22.2265 26.3615 22.3615 26.6699 22.3518C27.0072 22.3615 27.3349 22.2072 27.547 21.9374C27.7783 21.6578 27.894 21.2241 27.894 20.6265C27.894 19.9807 27.7687 19.4988 27.5084 19.1807C27.306 18.9205 27.0265 18.7952 26.6699 18.7952Z" fill="white"/>
<path d="M31.3928 20.5301C31.653 20.5879 31.8458 20.6747 31.9807 20.8C32.1542 20.9639 32.2506 21.1855 32.2506 21.4265C32.2506 21.6193 32.1831 21.812 32.0675 21.9663C31.9518 22.1398 31.7783 22.2747 31.5759 22.3422C31.3735 22.4193 31.0554 22.4578 30.6313 22.4578H28.8482V22.3518H28.9928C29.147 22.3518 29.2627 22.3036 29.3301 22.1976C29.3687 22.1301 29.3976 21.9952 29.3976 21.7831V19.3446C29.3976 19.1133 29.3687 18.959 29.3205 18.9012C29.2338 18.8145 29.1181 18.7663 28.9928 18.7759H28.8482V18.6699H30.4771C30.7277 18.6602 30.9687 18.6892 31.2097 18.7373C31.4506 18.7855 31.6819 18.9108 31.8458 19.094C31.9904 19.2578 32.0675 19.4602 32.0675 19.6819C32.0675 19.8651 32.0097 20.0482 31.894 20.1928C31.7687 20.3566 31.5856 20.4723 31.3928 20.5301ZM29.9277 20.3759C29.9952 20.3855 30.0723 20.3952 30.159 20.4048C30.2458 20.4145 30.3422 20.4145 30.4482 20.4145C30.7181 20.4145 30.9205 20.3855 31.0554 20.3277C31.1904 20.2699 31.2964 20.1831 31.3735 20.0578C31.441 19.9422 31.4795 19.7976 31.4795 19.6626C31.4795 19.441 31.3831 19.2386 31.2097 19.094C31.0265 18.9398 30.7663 18.8626 30.4193 18.8626C30.2458 18.8626 30.0819 18.8819 29.9181 18.9205L29.9277 20.3759ZM29.9277 22.1783C30.1398 22.2265 30.3518 22.2554 30.5639 22.2554C30.9012 22.2554 31.1518 22.1783 31.335 22.0241C31.5084 21.8892 31.6048 21.6771 31.5952 21.4651C31.5952 21.3205 31.5566 21.1663 31.4795 21.041C31.3831 20.8964 31.2482 20.7807 31.094 20.7229C30.8819 20.6361 30.6506 20.5976 30.4289 20.6072C30.3133 20.6072 30.2169 20.6072 30.1301 20.6169C30.0627 20.6169 29.9952 20.6265 29.9277 20.6361V22.1783Z" fill="white"/>
<path d="M35.1711 21.1855H33.706L33.4458 21.7831C33.3976 21.8892 33.359 21.9952 33.3494 22.1108C33.3494 22.1687 33.3783 22.2265 33.4362 22.2651C33.494 22.3036 33.6097 22.3325 33.7928 22.3518V22.4578H32.6072V22.3518C32.7615 22.3229 32.8675 22.2843 32.9157 22.2458C33.0121 22.159 33.1181 21.9759 33.2337 21.706L34.5639 18.5928H34.6603L35.9711 21.7349C36.0771 21.9855 36.1735 22.1494 36.2603 22.2265C36.3663 22.3036 36.4916 22.3518 36.6169 22.3518V22.4578H35.1229V22.3518C35.2771 22.3422 35.3735 22.3229 35.4313 22.2747C35.4795 22.2361 35.5084 22.1783 35.5084 22.1205C35.4988 21.9855 35.4603 21.8506 35.3928 21.7349L35.1711 21.1855ZM35.094 20.9831L34.4578 19.4602L33.8024 20.9831H35.094Z" fill="white"/>
<path d="M39.9518 21.4072L40.0482 21.4265L39.7205 22.4482H36.8V22.3421H36.9446C37.1084 22.3421 37.2241 22.294 37.2916 22.1879C37.3301 22.1301 37.3494 21.9952 37.3494 21.7735V19.3349C37.3494 19.1036 37.3205 18.9494 37.2723 18.8915C37.1855 18.8048 37.0699 18.7566 36.9446 18.7662H36.8V18.6602H38.5157V18.7662C38.3132 18.7662 38.1783 18.7855 38.0916 18.8241C38.0241 18.853 37.9663 18.9012 37.9277 18.9686C37.8988 19.0265 37.8795 19.1711 37.8795 19.3927V21.7831C37.8699 21.8891 37.8891 21.9952 37.9277 22.1012C37.947 22.1397 37.9855 22.1687 38.0337 22.1879C38.0819 22.2072 38.2265 22.2168 38.4675 22.2168H38.747C39.0361 22.2168 39.2385 22.1976 39.3542 22.1494C39.4795 22.1012 39.5855 22.0241 39.6723 21.918C39.7879 21.7735 39.8843 21.6 39.9518 21.4072Z" fill="white"/>
<path d="M44.8097 18.5928L44.8964 19.8747H44.8097C44.694 19.4892 44.5301 19.2096 44.3181 19.0458C44.0964 18.8723 43.8265 18.7855 43.547 18.7952C43.0265 18.7855 42.5639 19.1036 42.3904 19.5952C42.2651 19.9229 42.2072 20.2795 42.2169 20.6361C42.2072 20.9446 42.2651 21.2434 42.3807 21.5229C42.4771 21.7639 42.6506 21.9663 42.8723 22.1012C43.1036 22.2361 43.3639 22.3036 43.6241 22.3036C43.8458 22.3036 44.0771 22.2554 44.2699 22.1494C44.453 22.0434 44.6651 21.8313 44.8868 21.5229L44.9735 21.5807C44.7807 21.9181 44.5591 22.159 44.3085 22.3229C44.0386 22.4868 43.7205 22.5639 43.4121 22.5542C42.7856 22.5542 42.3036 22.3229 41.9566 21.8602C41.6964 21.5036 41.5615 21.0795 41.5711 20.6361C41.5711 20.2699 41.6578 19.9133 41.8217 19.5952C41.9759 19.2867 42.2265 19.0361 42.5157 18.8627C42.8048 18.6892 43.1422 18.6024 43.4892 18.6024C43.7687 18.6024 44.0482 18.6699 44.2988 18.8048C44.347 18.8337 44.4048 18.853 44.4627 18.8627C44.5109 18.8627 44.5591 18.8434 44.5976 18.8145C44.6458 18.7566 44.6844 18.6892 44.7036 18.6121L44.8097 18.5928Z" fill="white"/>
<path d="M47.7976 21.1855H46.3326L46.0723 21.7831C46.0241 21.8892 45.9856 21.9952 45.9759 22.1108C45.9759 22.1687 46.0049 22.2265 46.0627 22.2651C46.1205 22.3036 46.2362 22.3325 46.4193 22.3518V22.4578H45.2338V22.3518C45.388 22.3229 45.494 22.2843 45.5422 22.2458C45.6386 22.159 45.7446 21.9759 45.8603 21.706L47.1904 18.5928H47.2868L48.5976 21.7349C48.7036 21.9855 48.8 22.1494 48.8868 22.2265C48.9928 22.3036 49.1181 22.3518 49.2434 22.3518V22.4578H47.7494V22.3518C47.9036 22.3422 48 22.3229 48.0579 22.2747C48.1061 22.2361 48.135 22.1783 48.135 22.1205C48.1253 21.9855 48.0868 21.8506 48.0193 21.7349L47.7976 21.1855ZM47.7205 20.9831L47.0747 19.4602L46.4193 20.9831H47.7205Z" fill="white"/>
<path d="M50.4771 20.6844V21.7832C50.4771 22.0241 50.506 22.1687 50.5542 22.2265C50.641 22.3133 50.7566 22.3615 50.8723 22.3518H51.0169V22.4579H49.3976V22.3518H49.5422C49.706 22.3518 49.8217 22.3036 49.8891 22.1976C49.9277 22.1398 49.947 22.0049 49.947 21.7832V19.3446C49.947 19.1036 49.9181 18.9591 49.8699 18.9012C49.7831 18.8145 49.6675 18.7663 49.5422 18.7759H49.3976V18.6699H50.7855C51.0554 18.6603 51.3253 18.6988 51.5855 18.7759C51.7783 18.8434 51.9518 18.9687 52.0771 19.1326C52.212 19.2964 52.2795 19.5085 52.2795 19.7205C52.2892 20 52.1735 20.2795 51.9711 20.4723C51.7687 20.6651 51.4795 20.7615 51.1132 20.7615C51.0169 20.7615 50.9205 20.7518 50.8145 20.7422C50.7084 20.7326 50.6024 20.7133 50.4771 20.6844ZM50.4771 20.5302C50.5735 20.5494 50.6602 20.5591 50.7373 20.5687C50.8048 20.5783 50.8626 20.5783 50.9301 20.5783C51.1229 20.5783 51.306 20.5012 51.4313 20.3567C51.5759 20.2024 51.653 19.9904 51.6434 19.7783C51.6434 19.6241 51.6144 19.4699 51.547 19.3253C51.4891 19.1904 51.3928 19.0844 51.2578 19.0073C51.1325 18.9398 50.9879 18.9012 50.8434 18.9012C50.7181 18.9012 50.6024 18.9205 50.4771 18.9494V20.5302Z" fill="white"/>
<path d="M54.2362 22.3518V22.4578H52.6169V22.3518H52.7518C52.906 22.3518 53.0217 22.3036 53.0988 22.2169C53.147 22.159 53.1663 22.0145 53.1663 21.7928V19.3542C53.1759 19.2289 53.1663 19.094 53.1277 18.9783C53.1084 18.9301 53.0603 18.8819 53.0121 18.8626C52.935 18.8145 52.8482 18.7952 52.7518 18.7952H52.6265V18.6891H54.2362V18.7952H54.1012C53.9759 18.7855 53.8506 18.8337 53.7639 18.9301C53.7157 18.9879 53.6964 19.1325 53.6964 19.3542V21.7831C53.6868 21.9084 53.706 22.0337 53.735 22.159C53.7639 22.2072 53.8024 22.2554 53.8506 22.2747C53.9277 22.3229 54.0145 22.3422 54.1012 22.3422L54.2362 22.3518Z" fill="white"/>
<path d="M57.6771 18.6795L57.7156 19.5662H57.6096C57.6 19.4506 57.5711 19.3349 57.5229 19.2289C57.4747 19.1325 57.3879 19.0458 57.2916 18.9879C57.1759 18.9301 57.0409 18.9012 56.9156 18.9108H56.3855V21.7928C56.3855 22.0241 56.4144 22.1687 56.4626 22.2265C56.5494 22.3132 56.665 22.3518 56.7903 22.3421H56.9253V22.4482H55.3253V22.3421H55.4602C55.6241 22.3421 55.7301 22.294 55.7976 22.1976C55.8361 22.1397 55.8554 22.0048 55.8554 21.7928V18.9108H55.4024C55.2771 18.9012 55.1518 18.9205 55.0265 18.9494C54.9205 18.9879 54.8337 19.0554 54.7759 19.1518C54.6988 19.2771 54.6602 19.412 54.6506 19.5566H54.5542L54.6024 18.6699L57.6771 18.6795Z" fill="white"/>
<path d="M60.0193 21.1855H58.5542L58.294 21.7831C58.2458 21.8892 58.2072 21.9952 58.1976 22.1108C58.1976 22.1687 58.2265 22.2265 58.2844 22.2651C58.3422 22.3036 58.4579 22.3325 58.641 22.3518V22.4578H57.4458V22.3518C57.6 22.3229 57.706 22.2843 57.7542 22.2458C57.8506 22.159 57.9566 21.9759 58.0723 21.706L59.4024 18.5928H59.4988L60.8097 21.7349C60.9157 21.9855 61.0121 22.1494 61.0988 22.2265C61.2048 22.3036 61.3301 22.3518 61.4554 22.3518V22.4578H59.9615V22.3518C60.1157 22.3422 60.2121 22.3229 60.2699 22.2747C60.3181 22.2361 60.347 22.1783 60.347 22.1205C60.3374 21.9855 60.2988 21.8506 60.2313 21.7349L60.0193 21.1855ZM59.9422 20.9831L59.2964 19.4602L58.641 20.9831H59.9422Z" fill="white"/>
<path d="M64.8 21.4072L64.8867 21.4265L64.559 22.4482H61.6385V22.3421H61.7831C61.947 22.3421 62.0626 22.294 62.1301 22.1879C62.1687 22.1301 62.1879 21.9952 62.1879 21.7735V19.3349C62.1879 19.1036 62.159 18.9494 62.1108 18.8915C62.0241 18.8048 61.9084 18.7566 61.7831 18.7662H61.6385V18.6602H63.3446V18.7662C63.1422 18.7662 63.0072 18.7855 62.9205 18.8241C62.853 18.853 62.7952 18.9012 62.7566 18.9686C62.7277 19.0265 62.7084 19.1711 62.7084 19.3927V21.7831C62.6988 21.8891 62.7181 21.9952 62.7566 22.1012C62.7759 22.1397 62.8145 22.1687 62.8626 22.1879C62.9108 22.2072 63.0554 22.2168 63.2964 22.2168H63.5759C63.8651 22.2168 64.0675 22.1976 64.1831 22.1494C64.3084 22.1012 64.4145 22.0241 64.5012 21.918C64.6265 21.7735 64.7229 21.6 64.8 21.4072Z" fill="white"/>
</g>
<defs>
<clipPath id="clip0_216_444">
<rect width="64.9639" height="24" fill="white"/>
</clipPath>
</defs>
</svg>
