<svg width="321" height="24" viewBox="0 0 321 24" fill="none" xmlns="http://www.w3.org/2000/svg">
<g clip-path="url(#clip0_216_482)">
<path d="M47.4335 13.392H56.9411V16.5412H43.9025V19.9051H56.7857C57.7186 19.9041 58.6127 19.533 59.2724 18.8733C59.9321 18.2137 60.3032 17.3193 60.3044 16.3864V13.5474C60.3032 12.6145 59.9321 11.7201 59.2724 11.0605C58.6127 10.4008 57.7186 10.0298 56.7857 10.0286H47.2781V6.87938H60.3044V3.51489H47.4335C46.5006 3.51598 45.6062 3.88704 44.9466 4.5467C44.2869 5.20635 43.9159 6.10072 43.9148 7.03362V9.87323C43.9159 10.8061 44.2869 11.7005 44.9466 12.3602C45.6062 13.0198 46.5006 13.3909 47.4335 13.392Z" fill="white"/>
<path d="M76.824 3.51489H66.8043C65.8712 3.51598 64.9768 3.88704 64.3171 4.5467C63.6574 5.20635 63.2863 6.10072 63.2851 7.03362V16.3864C63.2863 17.3193 63.6574 18.2137 64.3171 18.8733C64.9768 19.533 65.8712 19.9041 66.8043 19.9051H76.824C77.7571 19.9039 78.6515 19.5328 79.3112 18.8732C79.971 18.2135 80.3415 17.3193 80.3432 16.3864V7.03362C80.3415 6.10078 79.971 5.2065 79.3112 4.54688C78.6515 3.88726 77.7571 3.51613 76.824 3.51489ZM76.9797 6.87879V16.5412H66.6492V6.87879H76.9797Z" fill="white"/>
<path d="M85.5547 19.9051H99.4279V16.5412H86.7354V3.51489H83.3719V17.7223C83.3725 18.3012 83.6025 18.856 84.0117 19.2653C84.4209 19.6745 84.9758 19.9046 85.5547 19.9051Z" fill="white"/>
<path d="M116.615 3.51489H105.26C104.504 3.51567 103.78 3.81626 103.244 4.35071C102.71 4.88516 102.41 5.60982 102.409 6.36566V19.9051H105.772V14.5608H116.103V19.9051H119.467V6.36566C119.466 5.60966 119.165 4.88493 118.631 4.35047C118.096 3.81602 117.371 3.51551 116.615 3.51489ZM116.102 6.87879V11.1974H105.772V6.87879H116.102Z" fill="white"/>
<path d="M136.144 16.5413H135.519L129.208 4.67315C129.022 4.32307 128.744 4.03024 128.405 3.82616C128.065 3.62208 127.676 3.51446 127.28 3.51489H124.633C124.054 3.51567 123.499 3.74596 123.09 4.15527C122.68 4.56458 122.45 5.11949 122.45 5.69826V19.9051H125.814V6.87879H126.572L132.881 18.7469C133.067 19.097 133.345 19.3898 133.684 19.5939C134.024 19.7979 134.412 19.9056 134.809 19.9051H137.325C137.904 19.9045 138.459 19.6744 138.868 19.2651C139.277 18.8559 139.507 18.3011 139.508 17.7223V3.51489H136.144V16.5413Z" fill="white"/>
<path d="M156.97 3.51489H145.613C144.858 3.51582 144.133 3.81647 143.598 4.35089C143.064 4.8853 142.763 5.60986 142.763 6.36566V19.9051H146.126V14.5608H156.457V19.9051H159.821V6.36566C159.82 5.60982 159.519 4.88516 158.985 4.35071C158.45 3.81626 157.726 3.51567 156.97 3.51489ZM156.457 6.87879V11.1974H146.126V6.87879H156.457Z" fill="white"/>
<path d="M178.202 16.4855H177.197L172.723 3.51489H169.171L174.296 18.3693C174.444 18.7971 174.722 19.1681 175.091 19.4309C175.46 19.6936 175.902 19.8349 176.355 19.835H179.043C179.497 19.8349 179.939 19.6936 180.307 19.4309C180.677 19.1681 180.954 18.797 181.102 18.3693L186.228 3.51489H182.676L178.202 16.4855Z" fill="white"/>
<path d="M188.934 19.835H204.961V16.4855H192.292V13.3497H204.961V10.0002H192.292V6.86439H204.961V3.51489H188.934V19.835Z" fill="white"/>
<path d="M221.414 16.5558H220.79L214.49 4.73845C214.305 4.38987 214.028 4.09829 213.689 3.89508C213.35 3.69187 212.962 3.58471 212.566 3.58515H209.924C209.346 3.58592 208.792 3.81515 208.384 4.22259C207.976 4.63002 207.746 5.18239 207.745 5.75859V19.9053H211.103V6.93464H211.86L218.157 18.7514C218.342 19.1001 218.62 19.3918 218.958 19.5951C219.297 19.7985 219.685 19.9057 220.081 19.9053H222.593C223.171 19.9045 223.724 19.6753 224.132 19.2679C224.541 18.8604 224.771 18.3081 224.772 17.7318V3.58515H221.414V16.5558Z" fill="white"/>
<path d="M227.454 6.93465H233.956V19.9053H237.313V6.93465H243.814V3.58514H227.454V6.93465Z" fill="white"/>
<path d="M260.118 13.7406C260.117 14.4869 259.819 15.2025 259.29 15.7302C258.761 16.2579 258.044 16.5548 257.296 16.5558H252.629C251.881 16.555 251.163 16.2582 250.634 15.7304C250.105 15.2026 249.807 14.487 249.807 13.7406V3.58514H246.449V14.4057C246.451 15.8636 247.032 17.2614 248.065 18.2924C249.099 19.3234 250.5 19.9035 251.961 19.9053H257.963C259.424 19.9036 260.826 19.3236 261.859 18.2926C262.892 17.2616 263.474 15.8638 263.476 14.4057V3.58514H260.118V13.7406Z" fill="white"/>
<path d="M282.477 8.68166C282.475 7.31208 281.929 5.99922 280.957 5.03076C279.987 4.0623 278.67 3.51721 277.298 3.51489H266.45V19.835H269.808V13.849H275.6L278.79 19.835H282.595L279.211 13.4817C280.174 13.0983 280.999 12.4363 281.581 11.5807C282.163 10.7253 282.475 9.71559 282.477 8.68166ZM269.808 6.86439H277.297C277.78 6.86609 278.243 7.05815 278.584 7.39871C278.925 7.73928 279.118 8.20066 279.119 8.68225C279.119 9.16394 278.927 9.62574 278.585 9.9663C278.244 10.3069 277.781 10.4985 277.298 10.4989H269.808V6.86439Z" fill="white"/>
<path d="M285.262 19.835H301.288V16.4855H288.619V13.3497H301.288V10.0002H288.619V6.86439H301.288V3.51489H285.262V19.835Z" fill="white"/>
<path d="M307.641 13.3498H317.13V16.4856H304.116V19.8351H316.976C317.907 19.834 318.8 19.4645 319.458 18.8077C320.116 18.1509 320.487 17.2603 320.488 16.3314V13.5045C320.487 12.5757 320.116 11.6852 319.457 11.0284C318.8 10.3716 317.907 10.002 316.976 10.0008H307.486V6.86501H320.488V3.5155H307.641C306.709 3.51674 305.817 3.88626 305.159 4.54306C304.5 5.19986 304.13 6.09034 304.129 7.0192V9.84605C304.13 10.7749 304.5 11.6654 305.159 12.3222C305.817 12.979 306.709 13.3485 307.641 13.3498Z" fill="white"/>
<mask id="mask0_216_482" style="mask-type:luminance" maskUnits="userSpaceOnUse" x="0" y="0" width="27" height="24">
<path d="M26.9268 0.00268555H0V23.4173H26.9268V0.00268555Z" fill="white"/>
</mask>
<g mask="url(#mask0_216_482)">
<path d="M26.4543 18.4638L22.1014 23.0986C22.0069 23.1994 21.8925 23.2797 21.7653 23.3346C21.6382 23.3895 21.501 23.4179 21.3623 23.4178H0.730257C0.631822 23.4178 0.53553 23.3893 0.453209 23.3356C0.370888 23.2821 0.306124 23.2058 0.266861 23.1161C0.227598 23.0265 0.21555 22.9275 0.232194 22.8311C0.248839 22.7348 0.29345 22.6454 0.360555 22.5738L4.7134 17.9391C4.80799 17.8384 4.92242 17.7581 5.04957 17.7032C5.17672 17.6483 5.31388 17.6199 5.45254 17.6198H26.0849C26.1833 17.6198 26.2797 17.6483 26.362 17.7019C26.4444 17.7555 26.5091 17.8319 26.5484 17.9215C26.5876 18.0112 26.5997 18.1103 26.5829 18.2066C26.5662 18.303 26.5215 18.3923 26.4543 18.4638ZM22.1014 9.13074C22.0069 9.03 21.8925 8.94963 21.7653 8.89472C21.6382 8.83981 21.501 8.81148 21.3623 8.81154H0.730257C0.631822 8.81154 0.53553 8.84011 0.453209 8.89367C0.370888 8.94729 0.306124 9.02356 0.266861 9.11318C0.227598 9.20286 0.21555 9.3019 0.232194 9.39825C0.248839 9.49455 0.29345 9.58399 0.360555 9.65552L4.7134 14.2916C4.80796 14.3923 4.92237 14.4726 5.04953 14.5275C5.17669 14.5824 5.31388 14.6108 5.45254 14.6108H26.0849C26.1833 14.6109 26.2797 14.5823 26.362 14.5287C26.4444 14.4751 26.5091 14.3988 26.5484 14.3092C26.5876 14.2195 26.5997 14.1204 26.5829 14.024C26.5662 13.9277 26.5215 13.8383 26.4543 13.7668L22.1014 9.13074ZM0.730257 5.80066H21.3623C21.501 5.8007 21.6382 5.77237 21.7653 5.71746C21.8925 5.66254 22.0069 5.58219 22.1014 5.48145L26.4543 0.846649C26.5215 0.775199 26.5662 0.685797 26.5829 0.589451C26.5997 0.493098 26.5876 0.393999 26.5484 0.304332C26.5091 0.214665 26.4444 0.13834 26.362 0.0847488C26.2797 0.0311569 26.1833 0.00263574 26.0849 0.00268561H5.45254C5.31388 0.00269515 5.17669 0.0310376 5.04953 0.0859552C4.92237 0.140873 4.80796 0.221188 4.7134 0.321902L0.360555 4.9567C0.293278 5.02819 0.248517 5.11764 0.231774 5.21406C0.215033 5.31048 0.227042 5.40966 0.266326 5.49939C0.305609 5.58913 0.370451 5.6655 0.452877 5.71912C0.535304 5.77274 0.631723 5.80073 0.730257 5.80066Z" fill="white"/>
</g>
</g>
<defs>
<clipPath id="clip0_216_482">
<rect width="320.78" height="24" fill="white"/>
</clipPath>
</defs>
</svg>
