<svg width="179" height="24" viewBox="0 0 179 24" fill="none" xmlns="http://www.w3.org/2000/svg">
<path d="M10.5185 23.9551C9.4625 23.9552 8.42927 23.9226 7.39885 23.9626C5.7033 24.0284 4.00813 23.9839 2.31293 23.9997C2.14588 24.0012 1.9769 23.9874 1.8119 23.9613C1.65093 23.9358 1.61157 23.8814 1.59565 23.7215C1.58854 23.6501 1.59055 23.5776 1.59053 23.5057C1.59018 22.1297 1.58981 20.7538 1.59025 19.3778C1.59039 18.9325 1.60617 18.9167 2.04683 18.9165C3.40678 18.916 4.76674 18.9164 6.12669 18.9161C6.59212 18.916 6.59591 18.9155 6.5825 18.4643C6.57462 18.199 6.62462 17.9523 6.79213 17.7429C6.95418 17.5403 7.00644 17.3159 7.02723 17.0576C7.08134 16.3852 7.04912 15.7161 7.01414 15.0458C7.00176 14.8086 6.95001 14.7565 6.70798 14.7411C6.45299 14.7248 6.19767 14.7138 5.94254 14.6995C5.90288 14.6973 5.86166 14.6959 5.82426 14.6842C5.1304 14.4676 4.4314 14.2652 3.78682 13.9168C3.35527 13.6835 2.97444 13.3807 2.59175 13.0775C1.89105 12.5224 1.36426 11.8216 0.90061 11.0707C0.618099 10.6131 0.432597 10.1096 0.27576 9.59462C0.125682 9.1018 0.0658695 8.59507 0.00493207 8.08763C-0.0035324 8.01714 -0.000586389 7.94331 0.00983818 7.87291C0.034565 7.70595 0.0882671 7.64397 0.26163 7.64301C1.22949 7.63766 2.19742 7.63757 3.16528 7.64367C3.33884 7.64477 3.38847 7.70184 3.42117 7.90124C3.47753 8.24491 3.60163 8.56148 3.7555 8.87208C3.97433 9.31379 4.30832 9.66106 4.67869 9.96422C5.23087 10.4162 5.83733 10.7898 6.51082 11.0422C6.58569 11.0703 6.66134 11.0968 6.73798 11.1195C6.91257 11.1711 6.98184 11.1544 7.02976 11.0544C7.09255 10.9233 7.04222 10.758 6.90982 10.681C6.84797 10.645 6.78087 10.6158 6.71308 10.5925C6.40016 10.4849 6.11559 10.3252 5.84512 10.1365C5.00905 9.55321 4.49599 8.76674 4.34446 7.75371C4.32923 7.65188 4.336 7.54637 4.33676 7.4426C4.33846 7.20851 4.27296 7.13948 4.0421 7.14133C3.6582 7.14441 3.27419 7.15637 2.89043 7.15065C2.26706 7.14135 1.64385 7.12104 1.0206 7.10447C0.972854 7.1032 0.924322 7.09921 0.877856 7.08885C0.767916 7.06435 0.717613 7.002 0.735267 6.88123C0.81493 6.33631 0.851029 5.78689 0.998723 5.24987C1.13365 4.75925 1.31972 4.29319 1.5594 3.85045C1.91511 3.1934 2.35719 2.59649 2.90113 2.0794C3.69395 1.32572 4.59151 0.730637 5.63215 0.388346C6.26907 0.178853 6.93073 0.0737074 7.6098 0.0426037C9.18539 -0.0295626 10.7607 0.0244398 12.3359 0.00785656C12.759 0.00340165 13.1836 0.0628756 13.6055 0.045242C15.7326 -0.0436657 17.8603 0.0304754 19.9874 0.00496329C20.0834 0.00381186 20.1799 0.00151628 20.2751 0.0107059C20.3343 0.0164119 20.3914 0.0427853 20.4481 0.0594901C20.4516 0.213724 20.3463 0.275891 20.2707 0.351718C19.3842 1.24144 18.4957 2.12908 17.6076 3.01722C17.0081 3.61686 16.4024 4.21065 15.8123 4.81941C15.6245 5.01308 15.4245 5.09351 15.1564 5.0927C12.8445 5.08576 10.5326 5.08858 8.22064 5.0888C8.09267 5.08881 7.96468 5.09084 7.83672 5.09317C7.0138 5.10816 6.06912 5.84499 5.96749 6.76596C5.96399 6.79775 5.96319 6.83087 5.95329 6.86077C5.79299 7.34498 5.96036 7.77531 6.19034 8.18472C6.44887 8.64495 6.85876 8.94536 7.35211 9.09838C7.63673 9.18666 7.94996 9.21259 8.25062 9.21435C10.0185 9.22474 11.7866 9.23103 13.5544 9.21528C14.458 9.20724 15.2911 9.45589 16.102 9.81373C16.8008 10.1221 17.4422 10.5293 18.0441 10.9965C18.2644 11.1675 18.4702 11.3601 18.666 11.5591C19.0643 11.9639 19.4349 12.3923 19.7565 12.8632C20.0753 13.3298 20.296 13.844 20.5006 14.3643C20.5933 14.5999 20.6309 14.8584 20.6819 15.1089C20.7424 15.4065 20.7908 15.7066 20.8433 16.0058C20.8502 16.045 20.8529 16.0852 20.8535 16.125C20.8631 16.708 20.8728 17.291 20.8807 17.874C20.8836 18.0892 20.8693 18.3055 20.8874 18.5193C20.8978 18.6421 20.9509 18.7634 20.997 18.8805C21.0349 18.9767 21.0932 19.0647 21.1384 19.1583C21.3496 19.5965 21.3016 20.0261 21.026 20.4068C20.7385 20.8038 20.3276 20.9804 19.8298 20.9104C19.613 20.8799 19.4148 20.8014 19.2324 20.6757C19.0553 20.5537 19.012 20.5676 18.8819 20.7447C18.8772 20.7512 18.8726 20.7578 18.8683 20.7645C18.285 21.6688 17.4883 22.3563 16.5869 22.9138C15.6653 23.4839 14.6551 23.8237 13.564 23.9122C12.5569 23.994 11.5494 23.9322 10.5185 23.9551ZM9.01559 14.7396C8.64071 14.7554 8.59792 14.7958 8.59699 15.1587C8.59532 15.8147 8.59903 16.4707 8.59566 17.1266C8.59463 17.3282 8.6483 17.4981 8.78952 17.6498C8.9877 17.8627 9.08364 18.1226 9.07639 18.4164C9.07422 18.5044 9.06602 18.5922 9.06493 18.6801C9.06286 18.8467 9.10202 18.8914 9.27057 18.9097C9.34189 18.9174 9.41439 18.9156 9.48635 18.9157C9.83835 18.9162 10.1903 18.9161 10.5423 18.916C11.2463 18.9159 11.9504 18.9201 12.6543 18.9142C13.3121 18.9087 13.903 18.7241 14.3561 18.2184C14.8482 17.6694 14.9687 17.0279 14.8196 16.3183C14.6837 15.6711 14.2779 15.2483 13.7098 14.959C13.3587 14.7801 12.9756 14.7415 12.5893 14.7405C11.4133 14.7373 10.2373 14.7393 9.01559 14.7396ZM13.2197 11.3346C13.7322 11.3752 14.2406 11.457 14.7226 11.631C15.7457 12.0003 16.5947 12.6184 17.2765 13.4728C17.6924 13.994 17.9962 14.5723 18.1896 15.2015C18.3249 15.6417 18.3924 16.103 18.4843 16.556C18.525 16.7566 18.5726 16.8122 18.7765 16.8397C18.8318 16.8472 18.8884 16.8498 18.944 16.8473C19.1551 16.8378 19.2417 16.7668 19.2474 16.5582C19.254 16.3191 19.2585 16.0761 19.2248 15.8404C19.0493 14.6127 18.4536 13.5963 17.5952 12.7284C17.1393 12.2674 16.631 11.8626 16.0709 11.5302C15.3071 11.0769 14.488 10.8045 13.5915 10.8035C12.0716 10.8017 10.5518 10.8029 9.03188 10.8032C8.95995 10.8032 8.88733 10.8017 8.81624 10.8106C8.66271 10.8298 8.60762 10.894 8.60303 11.0465C8.59812 11.2101 8.65811 11.2977 8.80699 11.3197C8.90128 11.3336 8.9984 11.3312 9.09425 11.3313C10.4541 11.3325 11.814 11.3328 13.2197 11.3346ZM20.6018 19.9887C20.7125 19.8026 20.7212 19.6085 20.6269 19.417C20.51 19.1793 20.3257 19.0316 20.0488 19.0162C19.7724 19.0008 19.6027 19.1615 19.4648 19.3672C19.3135 19.5929 19.3373 19.9014 19.5094 20.1023C19.7111 20.3377 19.9715 20.4091 20.239 20.3038C20.3849 20.2463 20.5013 20.1544 20.6018 19.9887ZM7.96599 17.7819C7.90259 17.7774 7.83894 17.7668 7.77585 17.7695C7.47926 17.7823 7.19732 18.0489 7.16495 18.3432C7.12169 18.7364 7.41397 19.067 7.82777 19.0408C8.32759 19.0091 8.69164 18.6665 8.43795 18.1361C8.35062 17.9535 8.2009 17.8402 7.96599 17.7819Z" fill="white"/>
<path d="M34.1637 19.18C33.3357 19.18 32.5737 19.09 31.8777 18.91C31.1937 18.718 30.5757 18.442 30.0237 18.082C29.4837 17.722 28.9857 17.284 28.5297 16.768L29.9697 14.968C30.6657 15.772 31.3557 16.336 32.0397 16.66C32.7237 16.984 33.4737 17.146 34.2897 17.146C34.7577 17.146 35.1957 17.086 35.6037 16.966C36.0117 16.846 36.3417 16.666 36.5937 16.426C36.8457 16.174 36.9717 15.874 36.9717 15.526C36.9717 15.298 36.9117 15.1 36.7917 14.932C36.6717 14.752 36.5037 14.602 36.2877 14.482C36.0837 14.35 35.8377 14.236 35.5497 14.14C35.2737 14.044 34.9797 13.966 34.6677 13.906C34.3557 13.834 34.0317 13.774 33.6957 13.726C32.9757 13.606 32.3337 13.444 31.7697 13.24C31.2057 13.036 30.7317 12.778 30.3477 12.466C29.9637 12.142 29.6697 11.77 29.4657 11.35C29.2737 10.93 29.1777 10.444 29.1777 9.892C29.1777 9.34 29.3037 8.836 29.5557 8.38C29.8197 7.924 30.1797 7.534 30.6357 7.21C31.1037 6.886 31.6377 6.634 32.2377 6.454C32.8497 6.274 33.5037 6.184 34.1997 6.184C34.9797 6.184 35.6757 6.268 36.2877 6.436C36.9117 6.604 37.4577 6.85 37.9257 7.174C38.3937 7.498 38.7897 7.882 39.1137 8.326L37.6377 9.91C37.3497 9.538 37.0257 9.232 36.6657 8.992C36.3057 8.74 35.9097 8.554 35.4777 8.434C35.0577 8.302 34.6197 8.236 34.1637 8.236C33.6597 8.236 33.2157 8.296 32.8317 8.416C32.4597 8.536 32.1597 8.71 31.9317 8.938C31.7157 9.166 31.6077 9.442 31.6077 9.766C31.6077 10.018 31.6737 10.24 31.8057 10.432C31.9497 10.624 32.1477 10.792 32.3997 10.936C32.6637 11.08 32.9757 11.2 33.3357 11.296C33.7077 11.392 34.1157 11.476 34.5597 11.548C35.2437 11.668 35.8797 11.818 36.4677 11.998C37.0557 12.178 37.5657 12.406 37.9977 12.682C38.4417 12.958 38.7837 13.3 39.0237 13.708C39.2637 14.104 39.3837 14.584 39.3837 15.148C39.3837 15.976 39.1617 16.696 38.7177 17.308C38.2857 17.908 37.6797 18.37 36.8997 18.694C36.1197 19.018 35.2077 19.18 34.1637 19.18ZM45.9889 19V8.56H41.8849V6.4H52.5409V8.56H48.3289V19H45.9889ZM53.4968 19L58.9148 6.4H61.2368L66.6188 19H64.1528L60.9128 11.404C60.8408 11.212 60.7508 10.978 60.6428 10.702C60.5468 10.426 60.4388 10.138 60.3188 9.838C60.2108 9.526 60.1028 9.232 59.9948 8.956C59.8988 8.668 59.8208 8.428 59.7608 8.236L60.2828 8.218C60.2108 8.47 60.1208 8.74 60.0128 9.028C59.9168 9.304 59.8148 9.586 59.7068 9.874C59.5988 10.15 59.4908 10.426 59.3828 10.702C59.2748 10.966 59.1788 11.218 59.0948 11.458L55.8548 19H53.4968ZM55.9268 16.192L56.7728 14.158H63.1988L63.8648 16.192H55.9268ZM69.7046 19V6.4H75.7166C76.6406 6.4 77.4146 6.52 78.0386 6.76C78.6746 7 79.1546 7.36 79.4786 7.84C79.8146 8.308 79.9826 8.878 79.9826 9.55C79.9826 10.234 79.7786 10.822 79.3706 11.314C78.9746 11.794 78.4046 12.124 77.6606 12.304L77.6966 11.962C78.2486 12.082 78.7466 12.286 79.1906 12.574C79.6346 12.862 79.9886 13.234 80.2526 13.69C80.5166 14.134 80.6486 14.656 80.6486 15.256C80.6486 15.916 80.5226 16.486 80.2706 16.966C80.0306 17.446 79.6946 17.836 79.2626 18.136C78.8306 18.424 78.3386 18.64 77.7866 18.784C77.2346 18.928 76.6406 19 76.0046 19H69.7046ZM71.9906 16.894H75.9686C76.4486 16.894 76.8566 16.834 77.1926 16.714C77.5406 16.582 77.8106 16.39 78.0026 16.138C78.1946 15.874 78.2906 15.556 78.2906 15.184C78.2906 14.8 78.1766 14.488 77.9486 14.248C77.7326 14.008 77.4386 13.834 77.0666 13.726C76.7066 13.606 76.3106 13.546 75.8786 13.546H71.9906V16.894ZM71.9906 11.53H75.6806C76.0526 11.53 76.3826 11.464 76.6706 11.332C76.9706 11.2 77.2046 11.02 77.3726 10.792C77.5406 10.564 77.6246 10.3 77.6246 10C77.6246 9.508 77.4326 9.136 77.0486 8.884C76.6646 8.632 76.1486 8.506 75.5006 8.506H71.9906V11.53ZM84.3647 19V6.4H86.7047V16.84H93.5267V19H84.3647ZM97.2495 19V6.4H106.501V8.524H99.5535V16.876H106.573V19H97.2495ZM98.4015 13.6V11.512H105.583V13.6H98.4015ZM117.499 19V6.4H119.677L127.993 16.246L127.669 16.318C127.609 15.958 127.561 15.592 127.525 15.22C127.489 14.836 127.453 14.446 127.417 14.05C127.393 13.654 127.369 13.246 127.345 12.826C127.333 12.406 127.321 11.98 127.309 11.548C127.309 11.104 127.309 10.648 127.309 10.18V6.4H129.631V19H127.417L119.065 9.298L119.461 9.172C119.497 9.664 119.533 10.108 119.569 10.504C119.605 10.9 119.641 11.266 119.677 11.602C119.713 11.926 119.737 12.232 119.749 12.52C119.773 12.796 119.791 13.072 119.803 13.348C119.815 13.612 119.821 13.87 119.821 14.122V19H117.499ZM140.192 19.18C139.196 19.18 138.278 19.018 137.438 18.694C136.61 18.37 135.884 17.914 135.26 17.326C134.636 16.738 134.156 16.048 133.82 15.256C133.484 14.464 133.316 13.606 133.316 12.682C133.316 11.758 133.484 10.9 133.82 10.108C134.156 9.316 134.636 8.626 135.26 8.038C135.884 7.45 136.61 6.994 137.438 6.67C138.278 6.346 139.196 6.184 140.192 6.184C141.188 6.184 142.106 6.346 142.946 6.67C143.786 6.994 144.512 7.456 145.124 8.056C145.736 8.644 146.21 9.334 146.546 10.126C146.894 10.906 147.068 11.758 147.068 12.682C147.068 13.594 146.894 14.446 146.546 15.238C146.21 16.03 145.736 16.726 145.124 17.326C144.512 17.914 143.786 18.37 142.946 18.694C142.106 19.018 141.188 19.18 140.192 19.18ZM140.192 16.948C140.852 16.948 141.452 16.846 141.992 16.642C142.544 16.426 143.018 16.126 143.414 15.742C143.822 15.346 144.134 14.89 144.35 14.374C144.578 13.858 144.692 13.294 144.692 12.682C144.692 12.07 144.578 11.506 144.35 10.99C144.134 10.474 143.822 10.024 143.414 9.64C143.018 9.244 142.544 8.944 141.992 8.74C141.452 8.524 140.852 8.416 140.192 8.416C139.544 8.416 138.944 8.524 138.392 8.74C137.84 8.944 137.36 9.244 136.952 9.64C136.556 10.024 136.25 10.474 136.034 10.99C135.818 11.506 135.71 12.07 135.71 12.682C135.71 13.294 135.818 13.858 136.034 14.374C136.25 14.89 136.556 15.346 136.952 15.742C137.36 16.126 137.84 16.426 138.392 16.642C138.944 16.846 139.544 16.948 140.192 16.948ZM150.792 19V6.4H156.426C157.434 6.4 158.334 6.556 159.126 6.868C159.93 7.18 160.614 7.624 161.178 8.2C161.754 8.776 162.186 9.448 162.474 10.216C162.774 10.972 162.924 11.8 162.924 12.7C162.924 13.612 162.774 14.452 162.474 15.22C162.186 15.988 161.76 16.654 161.196 17.218C160.632 17.782 159.948 18.22 159.144 18.532C158.34 18.844 157.434 19 156.426 19H150.792ZM153.132 17.182L152.952 16.84H156.336C157.02 16.84 157.62 16.738 158.136 16.534C158.664 16.33 159.102 16.042 159.45 15.67C159.798 15.298 160.062 14.866 160.242 14.374C160.422 13.87 160.512 13.312 160.512 12.7C160.512 12.1 160.422 11.548 160.242 11.044C160.062 10.54 159.792 10.102 159.432 9.73C159.084 9.358 158.652 9.07 158.136 8.866C157.62 8.662 157.02 8.56 156.336 8.56H152.898L153.132 8.254V17.182ZM166.648 19V6.4H175.9V8.524H168.952V16.876H175.972V19H166.648ZM167.8 13.6V11.512H174.982V13.6H167.8Z" fill="white"/>
</svg>
