<svg width="168" height="24" viewBox="0 0 168 24" fill="none" xmlns="http://www.w3.org/2000/svg">
<path d="M12.0218 3.33868e-05C10.4836 -0.00360297 8.91875 0.28973 7.40845 0.916394L11.0387 9.68122C11.36 9.54789 11.6945 9.48607 12.0218 9.4897C12.3599 9.49334 12.6921 9.56486 12.9975 9.69819L16.6278 0.933364C15.1818 0.326093 13.6157 0.00366974 12.0218 3.33868e-05Z" fill="url(#paint0_linear_203_48)"/>
<path d="M3.49942 3.53104C2.37457 4.66074 1.497 5.99528 0.900635 7.4474L9.66546 11.0777C9.78788 10.7674 9.97091 10.4813 10.2085 10.2401C10.4376 10.0062 10.7176 9.81345 11.0388 9.68012L7.4085 0.916504C5.8982 1.54196 4.58426 2.44014 3.49942 3.53104Z" fill="url(#paint1_linear_203_48)"/>
<path d="M20.5224 3.55273C19.4012 2.42303 18.0739 1.53576 16.6279 0.932129L12.9988 9.69695C13.3018 9.82907 13.5806 10.0194 13.8133 10.263C14.023 10.4824 14.1976 10.7418 14.32 11.0388C14.3273 11.0569 14.3333 11.0751 14.3406 11.0933L23.1066 7.46302C23.0994 7.44484 23.0921 7.42666 23.0848 7.40969C22.4691 5.92363 21.5891 4.62788 20.5224 3.55273Z" fill="url(#paint2_linear_203_48)"/>
<path d="M14.3406 11.0934C14.463 11.4086 14.5175 11.7346 14.5103 12.0534C14.503 12.3807 14.4315 12.7019 14.303 12.9976L23.0678 16.6279C23.669 15.1892 23.9926 13.6352 23.9999 12.0522C24.0072 10.5213 23.7199 8.96493 23.1054 7.46069L14.3406 11.0934Z" fill="url(#paint3_linear_203_48)"/>
<path d="M9.66551 11.0776L0.90069 7.44727C0.30554 8.89696 -0.00597381 10.4618 8.67746e-05 12.0545C0.00614736 13.5685 0.300692 15.1066 0.915236 16.5927C0.922508 16.6109 0.930993 16.6278 0.938266 16.646L9.7043 13.0157C9.69703 12.9976 9.68854 12.9806 9.68127 12.9624C9.55764 12.6654 9.49703 12.3588 9.49097 12.0545C9.4837 11.7163 9.5443 11.3854 9.66551 11.0776Z" fill="url(#paint4_linear_203_48)"/>
<path d="M14.303 12.9988C14.1757 13.2933 13.9915 13.5624 13.76 13.7915C13.5369 14.0109 13.2691 14.1927 12.9612 14.32L16.5915 23.0848C18.0872 22.4654 19.3903 21.5781 20.4703 20.5018C21.5902 19.3854 22.469 18.0654 23.069 16.6303L14.303 12.9988Z" fill="url(#paint5_linear_203_48)"/>
<path d="M10.2631 13.8134C10.0328 13.5928 9.84003 13.3237 9.70427 13.0146L0.938232 16.6449C1.56732 18.1431 2.46429 19.4474 3.55156 20.5237C4.6764 21.6377 6.00367 22.508 7.44609 23.0995L11.0764 14.3346C10.777 14.2159 10.4994 14.0389 10.2631 13.8134Z" fill="url(#paint6_linear_203_48)"/>
<path d="M12.0218 14.5104C11.6957 14.5128 11.3757 14.4522 11.0776 14.3346L7.44727 23.0994C8.88726 23.6897 10.4412 24.0025 12.023 24C13.5479 23.9976 15.0969 23.7043 16.5927 23.0849L12.9624 14.3201C12.6533 14.4473 12.3357 14.5079 12.0218 14.5104Z" fill="url(#paint7_linear_203_48)"/>
<path d="M34.2326 23.6162C33.6395 23.6162 33.071 23.5503 32.5273 23.4185C31.9836 23.3031 31.5223 23.1219 31.1433 22.8748L32.1813 20.082C32.6262 20.3951 33.1699 20.5516 33.8125 20.5516C34.2903 20.5516 34.6693 20.3868 34.9494 20.0573C35.2459 19.7442 35.3942 19.2664 35.3942 18.6238V5.32741H39.2497V18.5991C39.2497 20.1314 38.8131 21.3507 37.9398 22.2569C37.0666 23.1631 35.8308 23.6162 34.2326 23.6162Z" fill="white"/>
<path d="M49.3985 18.8216C47.8827 18.8216 46.5481 18.525 45.3947 17.9318C44.2579 17.3387 43.3764 16.5313 42.7503 15.5098C42.1242 14.4718 41.8111 13.2937 41.8111 11.9756C41.8111 10.641 42.1159 9.46299 42.7256 8.44145C43.3517 7.40344 44.2002 6.5961 45.2712 6.01942C46.3421 5.42627 47.5531 5.1297 48.9042 5.1297C50.2058 5.1297 51.3757 5.4098 52.4137 5.96999C53.4682 6.51371 54.3002 7.30458 54.9098 8.34259C55.5195 9.36413 55.8243 10.5916 55.8243 12.0251C55.8243 12.1733 55.816 12.3464 55.7996 12.5441C55.7831 12.7253 55.7666 12.8983 55.7501 13.0631H44.9499V10.814H53.7235L52.2407 11.4813C52.2407 10.7893 52.1006 10.1879 51.8205 9.67718C51.5404 9.16641 51.1532 8.77098 50.6589 8.49088C50.1646 8.1943 49.588 8.04602 48.9289 8.04602C48.2699 8.04602 47.6849 8.1943 47.1742 8.49088C46.6799 8.77098 46.2927 9.17465 46.0126 9.70189C45.7325 10.2127 45.5924 10.8223 45.5924 11.5308V12.1239C45.5924 12.8489 45.749 13.4915 46.062 14.0517C46.3916 14.5954 46.8447 15.0155 47.4213 15.3121C48.0145 15.5922 48.7065 15.7322 49.4973 15.7322C50.2058 15.7322 50.8237 15.6251 51.3509 15.411C51.8947 15.1968 52.389 14.8755 52.8338 14.4471L54.8851 16.6714C54.2755 17.3634 53.5093 17.8989 52.5867 18.2778C51.664 18.6403 50.6013 18.8216 49.3985 18.8216Z" fill="white"/>
<path d="M63.8283 18.8216C62.2631 18.8216 61.0438 18.4261 60.1706 17.6353C59.2973 16.8279 58.8607 15.6334 58.8607 14.0517V2.38638H62.7162V14.0022C62.7162 14.5624 62.8644 14.999 63.161 15.3121C63.4576 15.6087 63.8613 15.757 64.372 15.757C64.9817 15.757 65.5007 15.5922 65.9291 15.2627L66.9671 17.9813C66.5716 18.2614 66.0938 18.4756 65.5336 18.6238C64.9899 18.7557 64.4215 18.8216 63.8283 18.8216ZM56.8094 8.58974V5.62399H66.0279V8.58974H56.8094Z" fill="white"/>
<path d="M76.4963 18.7474C75.3759 18.7474 74.3626 18.492 73.4564 17.9813C72.5502 17.454 71.8252 16.7044 71.2815 15.7322C70.7543 14.7437 70.4906 13.5409 70.4906 12.1239C70.4906 10.707 70.7543 9.51241 71.2815 8.54031C71.8087 7.55173 72.5255 6.80205 73.4317 6.29128C74.3379 5.78052 75.3594 5.52513 76.4963 5.52513C77.732 5.52513 78.8359 5.80523 79.808 6.36543C80.7966 6.90915 81.571 7.68354 82.1312 8.6886C82.6914 9.67718 82.9715 10.8223 82.9715 12.1239C82.9715 13.442 82.6914 14.5954 82.1312 15.584C81.571 16.5725 80.7966 17.3469 79.808 17.9071C78.8359 18.4673 77.732 18.7474 76.4963 18.7474ZM69.7986 23.4185V5.6487H71.4792V9.55361L71.3062 12.1486L71.5534 14.7684V23.4185H69.7986ZM76.3727 17.1904C77.2954 17.1904 78.1192 16.9844 78.8441 16.5725C79.5691 16.1442 80.1458 15.551 80.5742 14.7931C81.0026 14.0187 81.2167 13.129 81.2167 12.1239C81.2167 11.1189 81.0026 10.2374 80.5742 9.47946C80.1458 8.72155 79.5691 8.1284 78.8441 7.70001C78.1192 7.27163 77.2954 7.05743 76.3727 7.05743C75.45 7.05743 74.618 7.27163 73.8765 7.70001C73.1516 8.1284 72.5749 8.72155 72.1465 9.47946C71.7346 10.2374 71.5286 11.1189 71.5286 12.1239C71.5286 13.129 71.7346 14.0187 72.1465 14.7931C72.5749 15.551 73.1516 16.1442 73.8765 16.5725C74.618 16.9844 75.45 17.1904 76.3727 17.1904Z" fill="white"/>
<path d="M86.5485 18.6238V5.6487H88.2291V9.18289L88.0561 8.56502C88.4186 7.57644 89.0282 6.82677 89.885 6.316C90.7418 5.78875 91.8045 5.52513 93.0732 5.52513V7.23044C93.0073 7.23044 92.9414 7.23044 92.8755 7.23044C92.8095 7.21396 92.7436 7.20572 92.6777 7.20572C91.3102 7.20572 90.2392 7.62587 89.4648 8.46617C88.6905 9.28998 88.3033 10.468 88.3033 12.0003V18.6238H86.5485Z" fill="white"/>
<path d="M101.443 18.7474C100.191 18.7474 99.0625 18.4673 98.0574 17.9071C97.0688 17.3305 96.2862 16.5478 95.7095 15.5592C95.1328 14.5542 94.8445 13.4091 94.8445 12.1239C94.8445 10.8223 95.1328 9.67718 95.7095 8.6886C96.2862 7.70001 97.0688 6.92562 98.0574 6.36543C99.046 5.80523 100.175 5.52513 101.443 5.52513C102.728 5.52513 103.865 5.80523 104.854 6.36543C105.859 6.92562 106.642 7.70001 107.202 8.6886C107.778 9.67718 108.067 10.8223 108.067 12.1239C108.067 13.4091 107.778 14.5542 107.202 15.5592C106.642 16.5478 105.859 17.3305 104.854 17.9071C103.849 18.4673 102.712 18.7474 101.443 18.7474ZM101.443 17.1904C102.382 17.1904 103.215 16.9844 103.939 16.5725C104.664 16.1442 105.233 15.551 105.645 14.7931C106.073 14.0187 106.287 13.129 106.287 12.1239C106.287 11.1024 106.073 10.2127 105.645 9.45475C105.233 8.69683 104.664 8.11192 103.939 7.70001C103.215 7.27163 102.391 7.05743 101.468 7.05743C100.545 7.05743 99.7215 7.27163 98.9966 7.70001C98.2716 8.11192 97.6949 8.69683 97.2665 9.45475C96.8382 10.2127 96.624 11.1024 96.624 12.1239C96.624 13.129 96.8382 14.0187 97.2665 14.7931C97.6949 15.551 98.2716 16.1442 98.9966 16.5725C99.7215 16.9844 100.537 17.1904 101.443 17.1904Z" fill="white"/>
<path d="M115.752 18.7474C114.533 18.7474 113.593 18.4179 112.934 17.7588C112.275 17.0998 111.946 16.1689 111.946 14.9661V2.78182H113.701V14.8672C113.701 15.6251 113.89 16.2101 114.269 16.622C114.664 17.0339 115.225 17.2398 115.95 17.2398C116.724 17.2398 117.367 17.0174 117.877 16.5725L118.495 17.833C118.149 18.146 117.729 18.3767 117.235 18.525C116.757 18.6733 116.263 18.7474 115.752 18.7474ZM109.623 7.10686V5.6487H117.655V7.10686H109.623Z" fill="white"/>
<path d="M126.52 18.7474C125.268 18.7474 124.139 18.4673 123.134 17.9071C122.145 17.3305 121.363 16.5478 120.786 15.5592C120.209 14.5542 119.921 13.4091 119.921 12.1239C119.921 10.8223 120.209 9.67718 120.786 8.6886C121.363 7.70001 122.145 6.92562 123.134 6.36543C124.123 5.80523 125.251 5.52513 126.52 5.52513C127.805 5.52513 128.942 5.80523 129.93 6.36543C130.936 6.92562 131.718 7.70001 132.278 8.6886C132.855 9.67718 133.143 10.8223 133.143 12.1239C133.143 13.4091 132.855 14.5542 132.278 15.5592C131.718 16.5478 130.936 17.3305 129.93 17.9071C128.925 18.4673 127.789 18.7474 126.52 18.7474ZM126.52 17.1904C127.459 17.1904 128.291 16.9844 129.016 16.5725C129.741 16.1442 130.309 15.551 130.721 14.7931C131.15 14.0187 131.364 13.129 131.364 12.1239C131.364 11.1024 131.15 10.2127 130.721 9.45475C130.309 8.69683 129.741 8.11192 129.016 7.70001C128.291 7.27163 127.467 7.05743 126.545 7.05743C125.622 7.05743 124.798 7.27163 124.073 7.70001C123.348 8.11192 122.772 8.69683 122.343 9.45475C121.915 10.2127 121.701 11.1024 121.701 12.1239C121.701 13.129 121.915 14.0187 122.343 14.7931C122.772 15.551 123.348 16.1442 124.073 16.5725C124.798 16.9844 125.614 17.1904 126.52 17.1904Z" fill="white"/>
<path d="M142.114 18.7474C140.828 18.7474 139.675 18.4673 138.654 17.9071C137.649 17.3305 136.858 16.5478 136.281 15.5592C135.704 14.5542 135.416 13.4091 135.416 12.1239C135.416 10.8223 135.704 9.67718 136.281 8.6886C136.858 7.70001 137.649 6.92562 138.654 6.36543C139.675 5.80523 140.828 5.52513 142.114 5.52513C143.218 5.52513 144.214 5.73932 145.104 6.16771C145.994 6.5961 146.694 7.23867 147.205 8.09545L145.895 8.98517C145.45 8.32612 144.898 7.84006 144.239 7.52701C143.58 7.21396 142.863 7.05743 142.089 7.05743C141.166 7.05743 140.334 7.27163 139.593 7.70001C138.851 8.11192 138.266 8.69683 137.838 9.45475C137.41 10.2127 137.195 11.1024 137.195 12.1239C137.195 13.1455 137.41 14.0352 137.838 14.7931C138.266 15.551 138.851 16.1442 139.593 16.5725C140.334 16.9844 141.166 17.1904 142.089 17.1904C142.863 17.1904 143.58 17.0339 144.239 16.7208C144.898 16.4078 145.45 15.93 145.895 15.2874L147.205 16.1771C146.694 17.0174 145.994 17.66 145.104 18.1048C144.214 18.5332 143.218 18.7474 142.114 18.7474Z" fill="white"/>
<path d="M155.724 18.7474C154.471 18.7474 153.343 18.4673 152.338 17.9071C151.349 17.3305 150.567 16.5478 149.99 15.5592C149.413 14.5542 149.125 13.4091 149.125 12.1239C149.125 10.8223 149.413 9.67718 149.99 8.6886C150.567 7.70001 151.349 6.92562 152.338 6.36543C153.326 5.80523 154.455 5.52513 155.724 5.52513C157.009 5.52513 158.146 5.80523 159.134 6.36543C160.139 6.92562 160.922 7.70001 161.482 8.6886C162.059 9.67718 162.347 10.8223 162.347 12.1239C162.347 13.4091 162.059 14.5542 161.482 15.5592C160.922 16.5478 160.139 17.3305 159.134 17.9071C158.129 18.4673 156.992 18.7474 155.724 18.7474ZM155.724 17.1904C156.663 17.1904 157.495 16.9844 158.22 16.5725C158.945 16.1442 159.513 15.551 159.925 14.7931C160.353 14.0187 160.568 13.129 160.568 12.1239C160.568 11.1024 160.353 10.2127 159.925 9.45475C159.513 8.69683 158.945 8.11192 158.22 7.70001C157.495 7.27163 156.671 7.05743 155.748 7.05743C154.826 7.05743 154.002 7.27163 153.277 7.70001C152.552 8.11192 151.975 8.69683 151.547 9.45475C151.118 10.2127 150.904 11.1024 150.904 12.1239C150.904 13.129 151.118 14.0187 151.547 14.7931C151.975 15.551 152.552 16.1442 153.277 16.5725C154.002 16.9844 154.817 17.1904 155.724 17.1904Z" fill="white"/>
<path d="M165.93 18.6238V0.285645H167.684V18.6238H165.93Z" fill="white"/>
<defs>
<linearGradient id="paint0_linear_203_48" x1="9.00417" y1="4.76049" x2="14.6631" y2="4.93499" gradientUnits="userSpaceOnUse">
<stop stop-color="white"/>
<stop offset="1" stop-color="white" stop-opacity="0"/>
</linearGradient>
<linearGradient id="paint1_linear_203_48" x1="4.60956" y1="8.93868" x2="8.88677" y2="5.33528" gradientUnits="userSpaceOnUse">
<stop stop-color="white"/>
<stop offset="1" stop-color="white" stop-opacity="0"/>
</linearGradient>
<linearGradient id="paint2_linear_203_48" x1="15.0884" y1="4.77479" x2="18.9587" y2="9.03303" gradientUnits="userSpaceOnUse">
<stop stop-color="white"/>
<stop offset="1" stop-color="white" stop-opacity="0"/>
</linearGradient>
<linearGradient id="paint3_linear_203_48" x1="19.4778" y1="8.66423" x2="18.899" y2="14.6738" gradientUnits="userSpaceOnUse">
<stop stop-color="white"/>
<stop offset="1" stop-color="white" stop-opacity="0"/>
</linearGradient>
<linearGradient id="paint4_linear_203_48" x1="4.97456" y1="14.8877" x2="4.72305" y2="9.08465" gradientUnits="userSpaceOnUse">
<stop stop-color="white"/>
<stop offset="1" stop-color="white" stop-opacity="0"/>
</linearGradient>
<linearGradient id="paint5_linear_203_48" x1="19.4987" y1="15.1415" x2="15.0785" y2="18.6209" gradientUnits="userSpaceOnUse">
<stop stop-color="white"/>
<stop offset="1" stop-color="white" stop-opacity="0"/>
</linearGradient>
<linearGradient id="paint6_linear_203_48" x1="9.00807" y1="18.875" x2="4.97358" y2="15.3259" gradientUnits="userSpaceOnUse">
<stop stop-color="white"/>
<stop offset="1" stop-color="white" stop-opacity="0"/>
</linearGradient>
<linearGradient id="paint7_linear_203_48" x1="14.9939" y1="19.3644" x2="9.55997" y2="18.9593" gradientUnits="userSpaceOnUse">
<stop stop-color="white"/>
<stop offset="1" stop-color="white" stop-opacity="0"/>
</linearGradient>
</defs>
</svg>
